<svg width="221" height="221" viewBox="0 0 221 221" fill="none" xmlns="http://www.w3.org/2000/svg">
<path fill-rule="evenodd" clip-rule="evenodd" d="M110.565 213.253C167.35 213.253 213.384 167.22 213.384 110.435C213.384 53.6497 167.35 7.61619 110.565 7.61619C53.78 7.61619 7.74656 53.6497 7.74656 110.435C7.74656 167.22 53.78 213.253 110.565 213.253ZM110.565 220.87C171.557 220.87 221 171.426 221 110.435C221 49.4433 171.557 0 110.565 0C49.5737 0 0.130371 49.4433 0.130371 110.435C0.130371 171.426 49.5737 220.87 110.565 220.87Z" fill="#252525"/>
<path d="M110.464 170.095C107.011 162.885 101.527 156.183 94.0126 149.988V144.657C97.2622 146.18 100.106 147.703 102.543 149.227C104.98 150.648 107.011 152.07 108.636 153.492V64.6869H115.033V153.492C116.76 152.07 118.841 150.648 121.279 149.227C123.716 147.703 126.508 146.18 129.656 144.657V149.988C122.243 156.183 116.76 162.885 113.205 170.095H110.464Z" fill="#252525"/>
</svg>
