<?xml version="1.0" encoding="UTF-8"?>
<svg id="a" xmlns="http://www.w3.org/2000/svg" viewBox="0 0 1512 766">
  <path d="M622,574c0,106.04-85.96,192-192,192s-192-85.96-192-192,85.96-192,192-192,192,85.96,192,192Z" style="fill: #252525;"/>
  <path d="M1381.5,359c-72.07,0-130.5-58.43-130.5-130.5v-83.5h-.01c0-.17.01-.33.01-.5,0-43.91-35.59-79.5-79.5-79.5s-79.5,35.59-79.5,79.5c0,.17.01.33.01.5h-.01v33c0,57.44-46.56,104-104,104s-104-46.56-104-104v-46h-.01c0-.33.01-.67.01-1C884,58.65,825.35,0,753,0s-131,58.65-131,131c0,.33.01.67.01,1h-.01v442H238V198c0-65.72-53.28-119-119-119S0,132.28,0,198v568h1512V228.5c0,72.07-58.43,130.5-130.5,130.5Z" style="fill: #252525;"/>
</svg>