<?xml version="1.0" encoding="UTF-8"?>
<svg id="b" data-name="Layer 2" xmlns="http://www.w3.org/2000/svg" viewBox="0 0 890 362">
  <g id="c" data-name="Layer 2">
    <path d="M890,228.5v133.5H0v-230h.01c0-.33-.01-.67-.01-1C0,58.65,58.65,0,131,0s131,58.65,131,131c0,.33-.01.67-.01,1h.01v46c0,57.44,46.56,104,104,104s104-46.56,104-104v-33h.01c0-.17-.01-.33-.01-.5,0-43.91,35.59-79.5,79.5-79.5s79.5,35.59,79.5,79.5c0,.17-.01.33-.01.5h.01v83.5c0,72.07,58.43,130.5,130.5,130.5s130.5-58.43,130.5-130.5Z" style="fill: #252525;"/>
  </g>
</svg>