<?xml version="1.0" encoding="UTF-8"?>
<svg id="a" data-name="Layer 1" xmlns="http://www.w3.org/2000/svg" viewBox="0 0 1512 787">
  <path d="M0,0v219c0-65.72,53.28-119,119-119s119,53.28,119,119v376h384V153h.01c0-.33-.01-.67-.01-1,0-72.35,58.65-131,131-131s131,58.65,131,131c0,.33-.01.67-.01,1h.01v46c0,57.44,46.56,104,104,104s104-46.56,104-104v-33h.01c0-.17-.01-.33-.01-.5,0-43.91,35.59-79.5,79.5-79.5s79.5,35.59,79.5,79.5c0,.17-.01.33-.01.5h.01v83.5h0c0,72.07,58.43,130.5,130.5,130.5s130.5-58.43,130.5-130.5h0V0H0Z" style="fill: #252525;"/>
  <path d="M622,595c0,106.04-85.96,192-192,192s-192-85.96-192-192,85.96-192,192-192,192,85.96,192,192Z" style="fill: #252525;"/>
</svg>