<?xml version="1.0" encoding="UTF-8"?>
<svg id="a" data-name="Layer 1" xmlns="http://www.w3.org/2000/svg" viewBox="0 0 490 122">
  <path d="M471.45,54.58c-10.24,0-18.55,8.3-18.55,18.55h-.15c-.96,8.91-8.46,15.87-17.63,15.87s-16.67-6.95-17.63-15.87h-.15v-7.73h-.04c-.81-17.21-15.01-30.91-32.42-30.91s-31.61,13.71-32.42,30.91h-.04v8.55h-.04c-.71,12.17-10.8,21.82-23.14,21.82s-22.44-9.65-23.14-21.82h-.04v-11.64h-122.11v11.64h-.04c-.71,12.17-10.8,21.82-23.14,21.82s-22.44-9.65-23.14-21.82h-.04v-8.55h-.04c-.81-17.21-15.01-30.91-32.42-30.91s-31.61,13.71-32.42,30.91h-.04v7.73h-.15c-.96,8.91-8.46,15.87-17.63,15.87s-16.67-6.95-17.63-15.87h-.15c0-10.24-8.3-18.55-18.55-18.55S0,62.88,0,73.13v48.87h490v-48.87c0-10.24-8.3-18.55-18.55-18.55Z" style="fill: #252525;"/>
  <path d="M306.06,61c0,33.69-27.31,61-61,61s-61-27.31-61-61S211.37,0,245.06,0s61,27.31,61,61Z" style="fill: #252525;"/>
</svg>