<svg width="148" height="148" viewBox="0 0 148 148" fill="none" xmlns="http://www.w3.org/2000/svg">
<path fill-rule="evenodd" clip-rule="evenodd" d="M117.699 98.4466C117.699 100.688 116.8 102.837 115.199 104.422C113.598 106.006 111.427 106.897 109.163 106.897H40.8792C38.6154 106.897 36.4444 106.006 34.8437 104.422C33.243 102.837 32.3437 100.688 32.3437 98.4466V47.7457C32.3437 45.5046 33.243 43.3552 34.8437 41.7705C36.4444 40.1858 38.6154 39.2955 40.8792 39.2955H109.163C111.427 39.2955 113.598 40.1858 115.199 41.7705C116.8 43.3552 117.699 45.5046 117.699 47.7457V98.4466ZM110.582 47.9463C111.151 48.2145 111.662 48.5922 112.085 49.058C112.939 49.9978 113.384 51.2383 113.324 52.5068C113.264 53.7753 112.703 54.968 111.764 55.8228L92.8206 73.0701L111.759 90.2744C112.246 90.6913 112.643 91.2017 112.929 91.7751C113.214 92.3485 113.382 92.9734 113.422 93.6129C113.462 94.2523 113.373 94.8932 113.161 95.4978C112.949 96.1023 112.618 96.6582 112.188 97.1325C111.757 97.6068 111.236 97.9899 110.655 98.2591C110.074 98.5283 109.445 98.6782 108.805 98.6999C108.165 98.7215 107.527 98.6146 106.929 98.3853C106.331 98.156 105.785 97.809 105.324 97.3649L85.4845 79.351C82.3865 81.419 78.7457 82.5225 75.0215 82.5225C71.2973 82.5225 67.6565 81.419 64.5585 79.351L44.7194 97.3649C44.2579 97.809 43.712 98.156 43.114 98.3853C42.5161 98.6146 41.8783 98.7215 41.2383 98.6999C40.5983 98.6782 39.9691 98.5283 39.3881 98.2591C38.807 97.9899 38.2858 97.6068 37.8553 97.1325C37.4248 96.6582 37.0937 96.1023 36.8817 95.4978C36.6697 94.8932 36.5811 94.2523 36.621 93.6129C36.661 92.9734 36.8287 92.3485 37.1143 91.7751C37.3998 91.2017 37.7975 90.6913 38.2836 90.2744L57.2272 73.0749L38.2788 55.8275C37.8135 55.4041 37.4361 54.8932 37.1681 54.3238C36.9001 53.7544 36.7469 53.1378 36.7171 52.5092C36.6569 51.2397 37.1033 49.9982 37.958 49.058C38.8127 48.1177 40.0058 47.5556 41.2747 47.4954C42.5436 47.4352 43.7844 47.8818 44.7242 48.737L68.5569 70.4351C70.325 72.046 72.6302 72.9388 75.0215 72.9388C77.4128 72.9388 79.718 72.046 81.4861 70.4351L105.319 48.737C105.784 48.3134 106.328 47.9857 106.92 47.7726C107.512 47.5594 108.14 47.4651 108.768 47.4949C109.397 47.5247 110.013 47.6781 110.582 47.9463Z" fill="#1B9BAC"/>
<path fill-rule="evenodd" clip-rule="evenodd" d="M148 73.7362C148 114.395 115.04 147.355 74.3812 147.355C33.7227 147.355 0.762451 114.395 0.762451 73.7362C0.762451 33.0777 33.7227 0.117432 74.3812 0.117432C115.04 0.117432 148 33.0777 148 73.7362ZM109.163 30.8454H40.8792C36.3517 30.8454 32.0096 32.6259 28.8082 35.7954C25.6067 38.9648 23.8082 43.2634 23.8082 47.7457V98.4466C23.8082 102.929 25.6067 107.228 28.8082 110.397C32.0096 113.566 36.3517 115.347 40.8792 115.347H109.163C113.691 115.347 118.033 113.566 121.234 110.397C124.436 107.228 126.234 102.929 126.234 98.4466V47.7457C126.234 43.2634 124.436 38.9648 121.234 35.7954C118.033 32.6259 113.691 30.8454 109.163 30.8454Z" fill="#1B9BAC"/>
</svg>
