<svg width="148" height="148" viewBox="0 0 148 148" fill="none" xmlns="http://www.w3.org/2000/svg">
<path fill-rule="evenodd" clip-rule="evenodd" d="M73.6188 0.64502C32.9641 0.64502 0 34.4326 0 76.1411C0 109.501 21.0997 137.767 50.35 147.759C54.0309 148.449 55.3784 146.116 55.3784 144.111C55.3784 142.303 55.3127 137.57 55.2798 131.26C34.8046 135.828 30.4663 121.136 30.4663 121.136C27.1141 112.427 22.2828 110.093 22.2828 110.093C15.6111 105.393 22.7758 105.492 22.7758 105.492C30.1706 106.017 34.0487 113.281 34.0487 113.281C40.6218 124.818 51.2702 121.498 55.477 119.559C56.1343 114.694 58.0405 111.342 60.1439 109.469C43.8098 107.562 26.6211 101.087 26.6211 72.1642C26.6211 63.9145 29.4804 57.1767 34.1802 51.918C33.4242 50.0117 30.8936 42.3207 34.9032 31.9347C34.9032 31.9347 41.0819 29.8969 55.1484 39.6585C61.0313 37.9822 67.3086 37.1606 73.5859 37.1277C79.8304 37.1606 86.1406 37.9822 92.0235 39.6585C106.09 29.8969 112.236 31.9347 112.236 31.9347C116.245 42.3207 113.715 50.0117 112.959 51.918C117.659 57.2096 120.518 63.9474 120.518 72.1642C120.518 101.153 103.296 107.529 86.8965 109.403C89.5257 111.736 91.892 116.338 91.892 123.371C91.892 133.462 91.7934 141.613 91.7934 144.078C91.7934 146.083 93.1081 148.449 96.8547 147.693C126.171 137.734 147.238 109.469 147.238 76.1411C147.238 34.4326 114.273 0.64502 73.6188 0.64502Z" fill="#1B9BAC"/>
</svg>
