<svg width="1454" height="6708" viewBox="0 0 1454 6708" fill="none" xmlns="http://www.w3.org/2000/svg">
<circle cx="110.954" cy="4351.95" r="15.9346" transform="rotate(0.071439 110.954 4351.95)" fill="#22484E"/>
<path fill-rule="evenodd" clip-rule="evenodd" d="M1204.94 3503.59C1211.92 3503.6 1217.58 3497.95 1217.59 3490.97C1217.6 3483.99 1211.95 3478.33 1204.97 3478.32C1197.99 3478.31 1192.33 3483.96 1192.32 3490.94C1192.31 3497.92 1197.96 3503.58 1204.94 3503.59ZM1204.93 3506.89C1213.74 3506.9 1220.88 3499.77 1220.89 3490.97C1220.9 3482.17 1213.78 3475.03 1204.97 3475.02C1196.17 3475.01 1189.03 3482.13 1189.02 3490.93C1189.01 3499.74 1196.13 3506.88 1204.93 3506.89Z" fill="#22484E"/>
<path d="M1211 3490.96C1210.99 3494.3 1208.29 3497 1204.95 3497C1201.61 3496.99 1198.91 3494.29 1198.91 3490.95C1198.91 3487.61 1201.62 3484.91 1204.96 3484.91C1208.3 3484.91 1211 3487.62 1211 3490.96Z" fill="#22484E"/>
<path fill-rule="evenodd" clip-rule="evenodd" d="M1205 4384.66C1211.43 4384.66 1216.65 4379.46 1216.66 4373.03C1216.66 4366.61 1211.46 4361.39 1205.03 4361.38C1198.61 4361.38 1193.39 4366.58 1193.38 4373C1193.38 4379.43 1198.58 4384.65 1205 4384.66ZM1205 4389.02C1213.84 4389.03 1221.01 4381.88 1221.02 4373.04C1221.03 4364.2 1213.88 4357.03 1205.04 4357.02C1196.2 4357.01 1189.03 4364.16 1189.02 4373C1189.01 4381.84 1196.16 4389.01 1205 4389.02Z" fill="#22484E"/>
<path fill-rule="evenodd" clip-rule="evenodd" d="M148.939 3925.59C155.918 3925.6 161.583 3919.95 161.592 3912.97C161.601 3905.99 155.95 3900.33 148.97 3900.32C141.99 3900.31 136.325 3905.96 136.316 3912.94C136.308 3919.92 141.959 3925.58 148.939 3925.59ZM148.934 3928.89C157.735 3928.9 164.878 3921.77 164.889 3912.97C164.9 3904.17 157.775 3897.03 148.974 3897.02C140.174 3897.01 133.031 3904.13 133.02 3912.93C133.009 3921.74 140.134 3928.88 148.934 3928.89Z" fill="#2F2F2E"/>
<path d="M154.998 3912.96C154.994 3916.3 152.285 3919 148.947 3919C145.609 3918.99 142.906 3916.29 142.91 3912.95C142.914 3909.61 145.624 3906.91 148.962 3906.91C152.3 3906.91 155.003 3909.62 154.998 3912.96Z" fill="#2F2F2E"/>
<path fill-rule="evenodd" clip-rule="evenodd" d="M1076 3892.66C1082.43 3892.66 1087.65 3887.46 1087.66 3881.03C1087.66 3874.61 1082.46 3869.39 1076.03 3869.38C1069.61 3869.38 1064.39 3874.58 1064.38 3881C1064.38 3887.43 1069.58 3892.65 1076 3892.66ZM1076 3897.02C1084.84 3897.03 1092.01 3889.88 1092.02 3881.04C1092.03 3872.2 1084.88 3865.03 1076.04 3865.02C1067.2 3865.01 1060.03 3872.16 1060.02 3881C1060.01 3889.84 1067.16 3897.01 1076 3897.02Z" fill="#2F2F2E"/>
<circle cx="796.954" cy="4274.95" r="15.9346" transform="rotate(0.071439 796.954 4274.95)" fill="#2F2F2E"/>
<path fill-rule="evenodd" clip-rule="evenodd" d="M744.939 3748.59C751.918 3748.6 757.583 3742.95 757.592 3735.97C757.601 3728.99 751.95 3723.33 744.97 3723.32C737.99 3723.31 732.325 3728.96 732.316 3735.94C732.308 3742.92 737.959 3748.58 744.939 3748.59ZM744.934 3751.89C753.735 3751.9 760.878 3744.77 760.889 3735.97C760.9 3727.17 753.775 3720.03 744.974 3720.02C736.174 3720.01 729.031 3727.13 729.02 3735.93C729.009 3744.74 736.134 3751.88 744.934 3751.89Z" fill="#2F2F2E"/>
<path d="M750.998 3735.96C750.994 3739.3 748.285 3742 744.947 3742C741.609 3741.99 738.906 3739.29 738.91 3735.95C738.914 3732.61 741.624 3729.91 744.962 3729.91C748.3 3729.91 751.003 3732.62 750.998 3735.96Z" fill="#2F2F2E"/>
<path fill-rule="evenodd" clip-rule="evenodd" d="M1376 4108.66C1382.43 4108.66 1387.65 4103.46 1387.66 4097.03C1387.66 4090.61 1382.46 4085.39 1376.03 4085.38C1369.61 4085.38 1364.39 4090.58 1364.38 4097C1364.38 4103.43 1369.58 4108.65 1376 4108.66ZM1376 4113.02C1384.84 4113.03 1392.01 4105.88 1392.02 4097.04C1392.03 4088.2 1384.88 4081.03 1376.04 4081.02C1367.2 4081.01 1360.03 4088.16 1360.02 4097C1360.01 4105.84 1367.16 4113.01 1376 4113.02Z" fill="#2F2F2E"/>
<circle cx="1412.95" cy="3687.95" r="15.9346" transform="rotate(0.071439 1412.95 3687.95)" fill="#2F2F2E"/>
<path fill-rule="evenodd" clip-rule="evenodd" d="M612.939 3957.59C619.918 3957.6 625.583 3951.95 625.592 3944.97C625.601 3937.99 619.95 3932.33 612.97 3932.32C605.99 3932.31 600.325 3937.96 600.316 3944.94C600.308 3951.92 605.959 3957.58 612.939 3957.59ZM612.934 3960.89C621.735 3960.9 628.878 3953.77 628.889 3944.97C628.9 3936.17 621.775 3929.03 612.974 3929.02C604.174 3929.01 597.031 3936.13 597.02 3944.93C597.009 3953.74 604.134 3960.88 612.934 3960.89Z" fill="#2F2F2E"/>
<path d="M618.998 3944.96C618.994 3948.3 616.285 3951 612.947 3951C609.609 3950.99 606.906 3948.29 606.91 3944.95C606.914 3941.61 609.624 3938.91 612.962 3938.91C616.3 3938.91 619.003 3941.62 618.998 3944.96Z" fill="#2F2F2E"/>
<path fill-rule="evenodd" clip-rule="evenodd" d="M175.004 4480.66C181.431 4480.66 186.647 4475.46 186.655 4469.03C186.663 4462.61 181.46 4457.39 175.033 4457.38C168.607 4457.38 163.391 4462.58 163.383 4469C163.375 4475.43 168.578 4480.65 175.004 4480.66ZM174.999 4485.02C183.835 4485.03 191.007 4477.88 191.018 4469.04C191.029 4460.2 183.875 4453.03 175.039 4453.02C166.203 4453.01 159.031 4460.16 159.02 4469C159.009 4477.84 166.163 4485.01 174.999 4485.02Z" fill="#2F2F2E"/>
<circle cx="227.954" cy="3490.95" r="15.9346" transform="rotate(0.071439 227.954 3490.95)" fill="#2F2F2E"/>
<circle cx="414.954" cy="4775.95" r="15.9346" transform="rotate(0.071439 414.954 4775.95)" fill="#22484E"/>
<path fill-rule="evenodd" clip-rule="evenodd" d="M1143.94 4705.59C1150.92 4705.6 1156.58 4699.95 1156.59 4692.97C1156.6 4685.99 1150.95 4680.33 1143.97 4680.32C1136.99 4680.31 1131.33 4685.96 1131.32 4692.94C1131.31 4699.92 1136.96 4705.58 1143.94 4705.59ZM1143.93 4708.89C1152.74 4708.9 1159.88 4701.77 1159.89 4692.97C1159.9 4684.17 1152.78 4677.03 1143.97 4677.02C1135.17 4677.01 1128.03 4684.13 1128.02 4692.93C1128.01 4701.74 1135.13 4708.88 1143.93 4708.89Z" fill="#22484E"/>
<path d="M1150 4692.96C1149.99 4696.3 1147.29 4699 1143.95 4699C1140.61 4698.99 1137.91 4696.29 1137.91 4692.95C1137.91 4689.61 1140.62 4686.91 1143.96 4686.91C1147.3 4686.91 1150 4689.62 1150 4692.96Z" fill="#22484E"/>
<path fill-rule="evenodd" clip-rule="evenodd" d="M225.004 5406.66C231.431 5406.66 236.647 5401.46 236.655 5395.03C236.663 5388.61 231.46 5383.39 225.033 5383.38C218.607 5383.38 213.391 5388.58 213.383 5395C213.375 5401.43 218.578 5406.65 225.004 5406.66ZM224.999 5411.02C233.835 5411.03 241.007 5403.88 241.018 5395.04C241.029 5386.2 233.875 5379.03 225.039 5379.02C216.203 5379.01 209.031 5386.16 209.02 5395C209.009 5403.84 216.163 5411.01 224.999 5411.02Z" fill="#22484E"/>
<path fill-rule="evenodd" clip-rule="evenodd" d="M122.939 5111.59C129.918 5111.6 135.583 5105.95 135.592 5098.97C135.601 5091.99 129.95 5086.33 122.97 5086.32C115.99 5086.31 110.325 5091.96 110.316 5098.94C110.308 5105.92 115.959 5111.58 122.939 5111.59ZM122.934 5114.89C131.735 5114.9 138.878 5107.77 138.889 5098.97C138.9 5090.17 131.775 5083.03 122.974 5083.02C114.174 5083.01 107.031 5090.13 107.02 5098.93C107.009 5107.74 114.134 5114.88 122.934 5114.89Z" fill="#2F2F2E"/>
<path d="M128.998 5098.96C128.994 5102.3 126.285 5105 122.947 5105C119.609 5104.99 116.906 5102.29 116.91 5098.95C116.914 5095.61 119.624 5092.91 122.962 5092.91C126.3 5092.91 129.003 5095.62 128.998 5098.96Z" fill="#2F2F2E"/>
<path fill-rule="evenodd" clip-rule="evenodd" d="M1050 5078.66C1056.43 5078.66 1061.65 5073.46 1061.66 5067.03C1061.66 5060.61 1056.46 5055.39 1050.03 5055.38C1043.61 5055.38 1038.39 5060.58 1038.38 5067C1038.38 5073.43 1043.58 5078.65 1050 5078.66ZM1050 5083.02C1058.84 5083.03 1066.01 5075.88 1066.02 5067.04C1066.03 5058.2 1058.88 5051.03 1050.04 5051.02C1041.2 5051.01 1034.03 5058.16 1034.02 5067C1034.01 5075.84 1041.16 5083.01 1050 5083.02Z" fill="#2F2F2E"/>
<circle cx="922.954" cy="5426.95" r="15.9346" transform="rotate(0.071439 922.954 5426.95)" fill="#2F2F2E"/>
<path fill-rule="evenodd" clip-rule="evenodd" d="M446.939 5160.59C453.918 5160.6 459.583 5154.95 459.592 5147.97C459.601 5140.99 453.95 5135.33 446.97 5135.32C439.99 5135.31 434.325 5140.96 434.316 5147.94C434.308 5154.92 439.959 5160.58 446.939 5160.59ZM446.934 5163.89C455.735 5163.9 462.878 5156.77 462.889 5147.97C462.9 5139.17 455.775 5132.03 446.974 5132.02C438.174 5132.01 431.031 5139.13 431.02 5147.93C431.009 5156.74 438.134 5163.88 446.934 5163.89Z" fill="#2F2F2E"/>
<path d="M452.998 5147.96C452.994 5151.3 450.285 5154 446.947 5154C443.609 5153.99 440.906 5151.29 440.91 5147.95C440.914 5144.61 443.624 5141.91 446.962 5141.91C450.3 5141.91 453.003 5144.62 452.998 5147.96Z" fill="#2F2F2E"/>
<path fill-rule="evenodd" clip-rule="evenodd" d="M1350 5294.66C1356.43 5294.66 1361.65 5289.46 1361.66 5283.03C1361.66 5276.61 1356.46 5271.39 1350.03 5271.38C1343.61 5271.38 1338.39 5276.58 1338.38 5283C1338.38 5289.43 1343.58 5294.65 1350 5294.66ZM1350 5299.02C1358.84 5299.03 1366.01 5291.88 1366.02 5283.04C1366.03 5274.2 1358.88 5267.03 1350.04 5267.02C1341.2 5267.01 1334.03 5274.16 1334.02 5283C1334.01 5291.84 1341.16 5299.01 1350 5299.02Z" fill="#2F2F2E"/>
<circle cx="1317.95" cy="4927.95" r="15.9346" transform="rotate(0.071439 1317.95 4927.95)" fill="#2F2F2E"/>
<path fill-rule="evenodd" clip-rule="evenodd" d="M775.939 5209.59C782.918 5209.6 788.583 5203.95 788.592 5196.97C788.601 5189.99 782.95 5184.33 775.97 5184.32C768.99 5184.31 763.325 5189.96 763.316 5196.94C763.308 5203.92 768.959 5209.58 775.939 5209.59ZM775.934 5212.89C784.735 5212.9 791.878 5205.77 791.889 5196.97C791.9 5188.17 784.775 5181.03 775.974 5181.02C767.174 5181.01 760.031 5188.13 760.02 5196.93C760.009 5205.74 767.134 5212.88 775.934 5212.89Z" fill="#2F2F2E"/>
<path d="M781.998 5196.96C781.994 5200.3 779.285 5203 775.947 5203C772.609 5202.99 769.906 5200.29 769.91 5196.95C769.914 5193.61 772.624 5190.91 775.962 5190.91C779.3 5190.91 782.003 5193.62 781.998 5196.96Z" fill="#2F2F2E"/>
<path fill-rule="evenodd" clip-rule="evenodd" d="M821.005 4730.66C827.431 4730.66 832.647 4725.46 832.655 4719.03C832.663 4712.61 827.46 4707.39 821.034 4707.38C814.608 4707.38 809.392 4712.58 809.384 4719C809.376 4725.43 814.579 4730.65 821.005 4730.66ZM820.999 4735.02C829.836 4735.03 837.008 4727.88 837.019 4719.04C837.03 4710.2 829.875 4703.03 821.039 4703.02C812.203 4703.01 805.031 4710.16 805.02 4719C805.009 4727.84 812.163 4735.01 820.999 4735.02Z" fill="#2F2F2E"/>
<circle cx="18.9545" cy="4775.95" r="15.9346" transform="rotate(0.071439 18.9545 4775.95)" fill="#2F2F2E"/>
<circle cx="1361.19" cy="6588.26" r="15.9346" transform="rotate(177.935 1361.19 6588.26)" fill="#22484E"/>
<path fill-rule="evenodd" clip-rule="evenodd" d="M266.685 6596.36C260.263 6596.6 255.245 6601.99 255.476 6608.41C255.708 6614.83 261.102 6619.85 267.524 6619.62C273.946 6619.39 278.964 6613.99 278.733 6607.57C278.501 6601.15 273.107 6596.13 266.685 6596.36ZM266.528 6592C257.698 6592.32 250.797 6599.74 251.116 6608.57C251.434 6617.4 258.851 6624.3 267.681 6623.98C276.511 6623.66 283.412 6616.25 283.093 6607.42C282.775 6598.59 275.359 6591.68 266.528 6592Z" fill="#22484E"/>
<circle cx="678.541" cy="6690.78" r="15.9346" transform="rotate(177.935 678.541 6690.78)" fill="#2F2F2E"/>
<path fill-rule="evenodd" clip-rule="evenodd" d="M1292.39 6462.04C1285.97 6462.27 1280.95 6467.66 1281.18 6474.08C1281.41 6480.51 1286.81 6485.52 1293.23 6485.29C1299.65 6485.06 1304.67 6479.67 1304.44 6473.25C1304.21 6466.82 1298.81 6461.8 1292.39 6462.04ZM1292.23 6457.68C1283.4 6457.99 1276.5 6465.41 1276.82 6474.24C1277.14 6483.07 1284.56 6489.97 1293.39 6489.65C1302.22 6489.34 1309.12 6481.92 1308.8 6473.09C1308.48 6464.26 1301.06 6457.36 1292.23 6457.68Z" fill="#2F2F2E"/>
<circle cx="1041.6" cy="6175.89" r="15.9346" transform="rotate(177.935 1041.6 6175.89)" fill="#22484E"/>
<path fill-rule="evenodd" clip-rule="evenodd" d="M315.745 6273.37C308.77 6273.62 303.32 6279.48 303.571 6286.46C303.823 6293.43 309.681 6298.88 316.656 6298.63C323.631 6298.38 329.082 6292.52 328.83 6285.55C328.579 6278.57 322.721 6273.12 315.745 6273.37ZM315.627 6270.08C306.832 6270.4 299.959 6277.78 300.277 6286.58C300.594 6295.37 307.98 6302.24 316.775 6301.93C325.57 6301.61 332.442 6294.22 332.125 6285.43C331.808 6276.63 324.421 6269.76 315.627 6270.08Z" fill="#22484E"/>
<path d="M310.161 6286.22C310.04 6282.88 312.647 6280.08 315.983 6279.96C319.319 6279.84 322.121 6282.45 322.241 6285.78C322.361 6289.12 319.755 6291.92 316.419 6292.04C313.083 6292.16 310.281 6289.56 310.161 6286.22Z" fill="#22484E"/>
<path fill-rule="evenodd" clip-rule="evenodd" d="M1207.91 5538.54C1201.49 5538.78 1196.47 5544.17 1196.7 5550.59C1196.93 5557.01 1202.33 5562.03 1208.75 5561.8C1215.17 5561.57 1220.19 5556.17 1219.96 5549.75C1219.72 5543.33 1214.33 5538.31 1207.91 5538.54ZM1207.75 5534.18C1198.92 5534.5 1192.02 5541.92 1192.34 5550.75C1192.66 5559.58 1200.07 5566.48 1208.9 5566.16C1217.74 5565.84 1224.64 5558.43 1224.32 5549.6C1224 5540.77 1216.58 5533.86 1207.75 5534.18Z" fill="#22484E"/>
<path fill-rule="evenodd" clip-rule="evenodd" d="M1320.9 5829.6C1313.93 5829.85 1308.48 5835.71 1308.73 5842.68C1308.98 5849.66 1314.84 5855.11 1321.81 5854.86C1328.79 5854.6 1334.24 5848.75 1333.99 5841.77C1333.74 5834.8 1327.88 5829.35 1320.9 5829.6ZM1320.78 5826.3C1311.99 5826.62 1305.12 5834.01 1305.43 5842.8C1305.75 5851.6 1313.14 5858.47 1321.93 5858.15C1330.73 5857.83 1337.6 5850.45 1337.28 5841.65C1336.97 5832.86 1329.58 5825.99 1320.78 5826.3Z" fill="#2F2F2E"/>
<path d="M1315.32 5842.44C1315.2 5839.11 1317.8 5836.31 1321.14 5836.19C1324.48 5836.07 1327.28 5838.67 1327.4 5842.01C1327.52 5845.34 1324.91 5848.15 1321.58 5848.27C1318.24 5848.39 1315.44 5845.78 1315.32 5842.44Z" fill="#2F2F2E"/>
<path fill-rule="evenodd" clip-rule="evenodd" d="M395.708 5897.07C389.286 5897.3 384.268 5902.69 384.499 5909.12C384.731 5915.54 390.125 5920.56 396.547 5920.32C402.969 5920.09 407.987 5914.7 407.756 5908.28C407.524 5901.85 402.13 5896.84 395.708 5897.07ZM395.551 5892.71C386.721 5893.03 379.82 5900.44 380.139 5909.27C380.457 5918.1 387.874 5925 396.704 5924.68C405.534 5924.37 412.435 5916.95 412.116 5908.12C411.798 5899.29 404.382 5892.39 395.551 5892.71Z" fill="#2F2F2E"/>
<circle cx="509.688" cy="5544.27" r="15.9346" transform="rotate(177.935 509.688 5544.27)" fill="#2F2F2E"/>
<path fill-rule="evenodd" clip-rule="evenodd" d="M995.301 5792.71C988.326 5792.96 982.875 5798.82 983.127 5805.79C983.378 5812.77 989.237 5818.22 996.212 5817.97C1003.19 5817.72 1008.64 5811.86 1008.39 5804.88C1008.13 5797.91 1002.28 5792.46 995.301 5792.71ZM995.182 5789.41C986.388 5789.73 979.515 5797.12 979.832 5805.91C980.149 5814.71 987.536 5821.58 996.331 5821.26C1005.13 5820.95 1012 5813.56 1011.68 5804.76C1011.36 5795.97 1003.98 5789.1 995.182 5789.41Z" fill="#2F2F2E"/>
<path d="M989.716 5805.56C989.596 5802.22 992.203 5799.42 995.539 5799.3C998.875 5799.18 1001.68 5801.78 1001.8 5805.12C1001.92 5808.46 999.31 5811.26 995.974 5811.38C992.638 5811.5 989.837 5808.89 989.716 5805.56Z" fill="#2F2F2E"/>
<path fill-rule="evenodd" clip-rule="evenodd" d="M87.8655 5692.4C81.4434 5692.63 76.425 5698.03 76.6565 5704.45C76.888 5710.87 82.2819 5715.89 88.704 5715.66C95.1261 5715.43 100.145 5710.03 99.913 5703.61C99.6815 5697.19 94.2877 5692.17 87.8655 5692.4ZM87.7083 5688.04C78.8779 5688.36 71.9775 5695.78 72.2959 5704.61C72.6143 5713.44 80.0308 5720.34 88.8612 5720.02C97.6916 5719.7 104.592 5712.28 104.274 5703.45C103.955 5694.62 96.5387 5687.72 87.7083 5688.04Z" fill="#2F2F2E"/>
<circle cx="133.562" cy="6057.65" r="15.9346" transform="rotate(177.935 133.562 6057.65)" fill="#2F2F2E"/>
<path fill-rule="evenodd" clip-rule="evenodd" d="M664.703 5756.01C657.728 5756.26 652.278 5762.12 652.529 5769.09C652.781 5776.07 658.639 5781.52 665.614 5781.26C672.589 5781.01 678.04 5775.15 677.788 5768.18C677.537 5761.2 671.679 5755.75 664.703 5756.01ZM664.585 5752.71C655.79 5753.03 648.917 5760.41 649.235 5769.21C649.552 5778 656.938 5784.88 665.733 5784.56C674.528 5784.24 681.4 5776.86 681.083 5768.06C680.766 5759.27 673.379 5752.39 664.585 5752.71Z" fill="#2F2F2E"/>
<path d="M659.119 5768.85C658.998 5765.52 661.605 5762.72 664.941 5762.59C668.277 5762.47 671.079 5765.08 671.199 5768.42C671.319 5771.75 668.713 5774.56 665.377 5774.68C662.041 5774.8 659.239 5772.19 659.119 5768.85Z" fill="#2F2F2E"/>
<path fill-rule="evenodd" clip-rule="evenodd" d="M637.521 6236.29C631.099 6236.52 626.081 6241.92 626.312 6248.34C626.544 6254.76 631.938 6259.78 638.36 6259.55C644.782 6259.32 649.8 6253.92 649.569 6247.5C649.337 6241.08 643.943 6236.06 637.521 6236.29ZM637.364 6231.93C628.534 6232.25 621.633 6239.66 621.952 6248.5C622.27 6257.33 629.687 6264.23 638.517 6263.91C647.347 6263.59 654.248 6256.17 653.929 6247.34C653.611 6238.51 646.195 6231.61 637.364 6231.93Z" fill="#2F2F2E"/>
<circle cx="1437.33" cy="6161.13" r="15.9346" transform="rotate(177.935 1437.33 6161.13)" fill="#2F2F2E"/>
<circle cx="107.955" cy="876.954" r="15.9346" transform="rotate(0.071439 107.955 876.954)" fill="#22484E"/>
<path fill-rule="evenodd" clip-rule="evenodd" d="M1201.94 28.5923C1208.92 28.601 1214.58 22.9499 1214.59 15.9702C1214.6 8.99058 1208.95 3.32539 1201.97 3.31668C1194.99 3.30798 1189.33 8.95906 1189.32 15.9387C1189.31 22.9184 1194.96 28.5836 1201.94 28.5923ZM1201.93 31.8891C1210.74 31.9001 1217.88 24.7748 1217.89 15.9743C1217.9 7.17391 1210.78 0.0308408 1201.97 0.019868C1193.17 0.00889522 1186.03 7.13417 1186.02 15.9346C1186.01 24.7351 1193.13 31.8781 1201.93 31.8891Z" fill="#22484E"/>
<path d="M1208 15.962C1207.99 19.3001 1205.29 22.0028 1201.95 21.9986C1198.61 21.9945 1195.91 19.285 1195.91 15.9469C1195.91 12.6088 1198.62 9.90616 1201.96 9.91032C1205.3 9.91448 1208 12.6239 1208 15.962Z" fill="#22484E"/>
<path fill-rule="evenodd" clip-rule="evenodd" d="M1202 909.655C1208.43 909.663 1213.65 904.46 1213.66 898.034C1213.66 891.607 1208.46 886.391 1202.03 886.383C1195.61 886.375 1190.39 891.578 1190.38 898.005C1190.38 904.431 1195.58 909.647 1202 909.655ZM1202 914.018C1210.84 914.029 1218.01 906.875 1218.02 898.039C1218.03 889.203 1210.88 882.031 1202.04 882.02C1193.2 882.009 1186.03 889.163 1186.02 897.999C1186.01 906.835 1193.16 914.007 1202 914.018Z" fill="#22484E"/>
<path fill-rule="evenodd" clip-rule="evenodd" d="M145.939 450.592C152.918 450.601 158.584 444.95 158.592 437.97C158.601 430.991 152.95 425.325 145.97 425.317C138.991 425.308 133.325 430.959 133.317 437.939C133.308 444.918 138.959 450.584 145.939 450.592ZM145.935 453.889C154.735 453.9 161.878 446.775 161.889 437.974C161.9 429.174 154.775 422.031 145.974 422.02C137.174 422.009 130.031 429.134 130.02 437.935C130.009 446.735 137.134 453.878 145.935 453.889Z" fill="#2F2F2E"/>
<path d="M151.999 437.962C151.995 441.3 149.285 444.003 145.947 443.999C142.609 443.994 139.906 441.285 139.91 437.947C139.915 434.609 142.624 431.906 145.962 431.91C149.3 431.914 152.003 434.624 151.999 437.962Z" fill="#2F2F2E"/>
<path fill-rule="evenodd" clip-rule="evenodd" d="M1073 417.655C1079.43 417.663 1084.65 412.46 1084.66 406.034C1084.66 399.607 1079.46 394.391 1073.03 394.383C1066.61 394.375 1061.39 399.578 1061.38 406.005C1061.38 412.431 1066.58 417.647 1073 417.655ZM1073 422.018C1081.84 422.029 1089.01 414.875 1089.02 406.039C1089.03 397.203 1081.88 390.031 1073.04 390.02C1064.2 390.009 1057.03 397.163 1057.02 405.999C1057.01 414.835 1064.16 422.007 1073 422.018Z" fill="#2F2F2E"/>
<circle cx="793.955" cy="799.954" r="15.9346" transform="rotate(0.071439 793.955 799.954)" fill="#2F2F2E"/>
<path fill-rule="evenodd" clip-rule="evenodd" d="M741.939 273.592C748.918 273.601 754.584 267.95 754.592 260.97C754.601 253.991 748.95 248.325 741.97 248.317C734.991 248.308 729.325 253.959 729.317 260.939C729.308 267.918 734.959 273.584 741.939 273.592ZM741.935 276.889C750.735 276.9 757.878 269.775 757.889 260.974C757.9 252.174 750.775 245.031 741.974 245.02C733.174 245.009 726.031 252.134 726.02 260.935C726.009 269.735 733.134 276.878 741.935 276.889Z" fill="#2F2F2E"/>
<path d="M747.999 260.962C747.995 264.3 745.285 267.003 741.947 266.999C738.609 266.994 735.906 264.285 735.91 260.947C735.915 257.609 738.624 254.906 741.962 254.91C745.3 254.914 748.003 257.624 747.999 260.962Z" fill="#2F2F2E"/>
<path fill-rule="evenodd" clip-rule="evenodd" d="M1373 633.655C1379.43 633.663 1384.65 628.46 1384.66 622.034C1384.66 615.607 1379.46 610.391 1373.03 610.383C1366.61 610.375 1361.39 615.578 1361.38 622.005C1361.38 628.431 1366.58 633.647 1373 633.655ZM1373 638.018C1381.84 638.029 1389.01 630.875 1389.02 622.039C1389.03 613.203 1381.88 606.031 1373.04 606.02C1364.2 606.009 1357.03 613.163 1357.02 621.999C1357.01 630.835 1364.16 638.007 1373 638.018Z" fill="#2F2F2E"/>
<circle cx="1409.95" cy="212.954" r="15.9346" transform="rotate(0.071439 1409.95 212.954)" fill="#2F2F2E"/>
<path fill-rule="evenodd" clip-rule="evenodd" d="M609.939 482.592C616.918 482.601 622.584 476.95 622.592 469.97C622.601 462.991 616.95 457.325 609.97 457.317C602.991 457.308 597.325 462.959 597.317 469.939C597.308 476.918 602.959 482.584 609.939 482.592ZM609.935 485.889C618.735 485.9 625.878 478.775 625.889 469.974C625.9 461.174 618.775 454.031 609.974 454.02C601.174 454.009 594.031 461.134 594.02 469.935C594.009 478.735 601.134 485.878 609.935 485.889Z" fill="#2F2F2E"/>
<path d="M615.999 469.962C615.995 473.3 613.285 476.003 609.947 475.999C606.609 475.994 603.906 473.285 603.91 469.947C603.915 466.609 606.624 463.906 609.962 463.91C613.3 463.914 616.003 466.624 615.999 469.962Z" fill="#2F2F2E"/>
<path fill-rule="evenodd" clip-rule="evenodd" d="M172.005 1005.66C178.431 1005.66 183.647 1000.46 183.655 994.034C183.663 987.607 178.46 982.391 172.034 982.383C165.607 982.375 160.391 987.578 160.383 994.005C160.375 1000.43 165.578 1005.65 172.005 1005.66ZM171.999 1010.02C180.835 1010.03 188.007 1002.88 188.018 994.039C188.029 985.203 180.875 978.031 172.039 978.02C163.203 978.009 156.031 985.163 156.02 993.999C156.009 1002.84 163.163 1010.01 171.999 1010.02Z" fill="#2F2F2E"/>
<circle cx="224.955" cy="15.9545" r="15.9346" transform="rotate(0.071439 224.955 15.9545)" fill="#2F2F2E"/>
<circle cx="411.955" cy="1300.95" r="15.9346" transform="rotate(0.071439 411.955 1300.95)" fill="#22484E"/>
<path fill-rule="evenodd" clip-rule="evenodd" d="M1140.94 1230.59C1147.92 1230.6 1153.58 1224.95 1153.59 1217.97C1153.6 1210.99 1147.95 1205.33 1140.97 1205.32C1133.99 1205.31 1128.33 1210.96 1128.32 1217.94C1128.31 1224.92 1133.96 1230.58 1140.94 1230.59ZM1140.93 1233.89C1149.74 1233.9 1156.88 1226.77 1156.89 1217.97C1156.9 1209.17 1149.78 1202.03 1140.97 1202.02C1132.17 1202.01 1125.03 1209.13 1125.02 1217.93C1125.01 1226.74 1132.13 1233.88 1140.93 1233.89Z" fill="#22484E"/>
<path d="M1147 1217.96C1146.99 1221.3 1144.29 1224 1140.95 1224C1137.61 1223.99 1134.91 1221.29 1134.91 1217.95C1134.91 1214.61 1137.62 1211.91 1140.96 1211.91C1144.3 1211.91 1147 1214.62 1147 1217.96Z" fill="#22484E"/>
<path fill-rule="evenodd" clip-rule="evenodd" d="M222.005 1931.66C228.431 1931.66 233.647 1926.46 233.655 1920.03C233.663 1913.61 228.46 1908.39 222.034 1908.38C215.607 1908.38 210.391 1913.58 210.383 1920C210.375 1926.43 215.578 1931.65 222.005 1931.66ZM221.999 1936.02C230.835 1936.03 238.007 1928.88 238.018 1920.04C238.029 1911.2 230.875 1904.03 222.039 1904.02C213.203 1904.01 206.031 1911.16 206.02 1920C206.009 1928.84 213.163 1936.01 221.999 1936.02Z" fill="#22484E"/>
<path fill-rule="evenodd" clip-rule="evenodd" d="M119.939 1636.59C126.918 1636.6 132.584 1630.95 132.592 1623.97C132.601 1616.99 126.95 1611.33 119.97 1611.32C112.991 1611.31 107.325 1616.96 107.317 1623.94C107.308 1630.92 112.959 1636.58 119.939 1636.59ZM119.935 1639.89C128.735 1639.9 135.878 1632.77 135.889 1623.97C135.9 1615.17 128.775 1608.03 119.974 1608.02C111.174 1608.01 104.031 1615.13 104.02 1623.93C104.009 1632.74 111.134 1639.88 119.935 1639.89Z" fill="#2F2F2E"/>
<path d="M125.999 1623.96C125.995 1627.3 123.285 1630 119.947 1630C116.609 1629.99 113.906 1627.29 113.91 1623.95C113.915 1620.61 116.624 1617.91 119.962 1617.91C123.3 1617.91 126.003 1620.62 125.999 1623.96Z" fill="#2F2F2E"/>
<path fill-rule="evenodd" clip-rule="evenodd" d="M1047 1603.66C1053.43 1603.66 1058.65 1598.46 1058.66 1592.03C1058.66 1585.61 1053.46 1580.39 1047.03 1580.38C1040.61 1580.38 1035.39 1585.58 1035.38 1592C1035.38 1598.43 1040.58 1603.65 1047 1603.66ZM1047 1608.02C1055.84 1608.03 1063.01 1600.88 1063.02 1592.04C1063.03 1583.2 1055.88 1576.03 1047.04 1576.02C1038.2 1576.01 1031.03 1583.16 1031.02 1592C1031.01 1600.84 1038.16 1608.01 1047 1608.02Z" fill="#2F2F2E"/>
<circle cx="919.955" cy="1951.95" r="15.9346" transform="rotate(0.071439 919.955 1951.95)" fill="#2F2F2E"/>
<path fill-rule="evenodd" clip-rule="evenodd" d="M443.939 1685.59C450.918 1685.6 456.584 1679.95 456.592 1672.97C456.601 1665.99 450.95 1660.33 443.97 1660.32C436.991 1660.31 431.325 1665.96 431.317 1672.94C431.308 1679.92 436.959 1685.58 443.939 1685.59ZM443.935 1688.89C452.735 1688.9 459.878 1681.77 459.889 1672.97C459.9 1664.17 452.775 1657.03 443.974 1657.02C435.174 1657.01 428.031 1664.13 428.02 1672.93C428.009 1681.74 435.134 1688.88 443.935 1688.89Z" fill="#2F2F2E"/>
<path d="M449.999 1672.96C449.995 1676.3 447.285 1679 443.947 1679C440.609 1678.99 437.906 1676.29 437.91 1672.95C437.915 1669.61 440.624 1666.91 443.962 1666.91C447.3 1666.91 450.003 1669.62 449.999 1672.96Z" fill="#2F2F2E"/>
<path fill-rule="evenodd" clip-rule="evenodd" d="M1347 1819.66C1353.43 1819.66 1358.65 1814.46 1358.66 1808.03C1358.66 1801.61 1353.46 1796.39 1347.03 1796.38C1340.61 1796.38 1335.39 1801.58 1335.38 1808C1335.38 1814.43 1340.58 1819.65 1347 1819.66ZM1347 1824.02C1355.84 1824.03 1363.01 1816.88 1363.02 1808.04C1363.03 1799.2 1355.88 1792.03 1347.04 1792.02C1338.2 1792.01 1331.03 1799.16 1331.02 1808C1331.01 1816.84 1338.16 1824.01 1347 1824.02Z" fill="#2F2F2E"/>
<circle cx="1314.95" cy="1452.95" r="15.9346" transform="rotate(0.071439 1314.95 1452.95)" fill="#2F2F2E"/>
<path fill-rule="evenodd" clip-rule="evenodd" d="M772.939 1734.59C779.918 1734.6 785.584 1728.95 785.592 1721.97C785.601 1714.99 779.95 1709.33 772.97 1709.32C765.991 1709.31 760.325 1714.96 760.317 1721.94C760.308 1728.92 765.959 1734.58 772.939 1734.59ZM772.935 1737.89C781.735 1737.9 788.878 1730.77 788.889 1721.97C788.9 1713.17 781.775 1706.03 772.974 1706.02C764.174 1706.01 757.031 1713.13 757.02 1721.93C757.009 1730.74 764.134 1737.88 772.935 1737.89Z" fill="#2F2F2E"/>
<path d="M778.999 1721.96C778.995 1725.3 776.285 1728 772.947 1728C769.609 1727.99 766.906 1725.29 766.91 1721.95C766.915 1718.61 769.624 1715.91 772.962 1715.91C776.3 1715.91 779.003 1718.62 778.999 1721.96Z" fill="#2F2F2E"/>
<path fill-rule="evenodd" clip-rule="evenodd" d="M818.005 1255.66C824.431 1255.66 829.647 1250.46 829.655 1244.03C829.663 1237.61 824.46 1232.39 818.034 1232.38C811.608 1232.38 806.392 1237.58 806.384 1244C806.376 1250.43 811.579 1255.65 818.005 1255.66ZM817.999 1260.02C826.836 1260.03 834.008 1252.88 834.019 1244.04C834.03 1235.2 826.875 1228.03 818.039 1228.02C809.203 1228.01 802.031 1235.16 802.02 1244C802.009 1252.84 809.163 1260.01 817.999 1260.02Z" fill="#2F2F2E"/>
<circle cx="15.9545" cy="1300.95" r="15.9346" transform="rotate(0.071439 15.9545 1300.95)" fill="#2F2F2E"/>
<circle cx="1358.19" cy="3113.26" r="15.9346" transform="rotate(177.935 1358.19 3113.26)" fill="#22484E"/>
<path fill-rule="evenodd" clip-rule="evenodd" d="M263.686 3121.36C257.263 3121.59 252.245 3126.99 252.477 3133.41C252.708 3139.83 258.102 3144.85 264.524 3144.62C270.946 3144.39 275.965 3138.99 275.733 3132.57C275.502 3126.15 270.108 3121.13 263.686 3121.36ZM263.528 3117C254.698 3117.32 247.798 3124.74 248.116 3133.57C248.434 3142.4 255.851 3149.3 264.681 3148.98C273.512 3148.66 280.412 3141.25 280.094 3132.42C279.775 3123.58 272.359 3116.68 263.528 3117Z" fill="#22484E"/>
<circle cx="675.541" cy="3215.78" r="15.9346" transform="rotate(177.935 675.541 3215.78)" fill="#2F2F2E"/>
<path fill-rule="evenodd" clip-rule="evenodd" d="M1289.39 2987.04C1282.97 2987.27 1277.95 2992.66 1278.18 2999.08C1278.41 3005.51 1283.81 3010.52 1290.23 3010.29C1296.65 3010.06 1301.67 3004.67 1301.44 2998.25C1301.21 2991.82 1295.81 2986.8 1289.39 2987.04ZM1289.23 2982.68C1280.4 2982.99 1273.5 2990.41 1273.82 2999.24C1274.14 3008.07 1281.56 3014.97 1290.39 3014.65C1299.22 3014.34 1306.12 3006.92 1305.8 2998.09C1305.48 2989.26 1298.06 2982.36 1289.23 2982.68Z" fill="#2F2F2E"/>
<circle cx="1038.6" cy="2700.89" r="15.9346" transform="rotate(177.935 1038.6 2700.89)" fill="#22484E"/>
<path fill-rule="evenodd" clip-rule="evenodd" d="M312.746 2798.37C305.771 2798.62 300.32 2804.48 300.571 2811.46C300.823 2818.43 306.681 2823.88 313.656 2823.63C320.632 2823.38 326.082 2817.52 325.831 2810.55C325.579 2803.57 319.721 2798.12 312.746 2798.37ZM312.627 2795.08C303.832 2795.4 296.96 2802.78 297.277 2811.58C297.594 2820.37 304.98 2827.24 313.775 2826.93C322.57 2826.61 329.442 2819.22 329.125 2810.43C328.808 2801.63 321.422 2794.76 312.627 2795.08Z" fill="#22484E"/>
<path d="M307.161 2811.22C307.041 2807.88 309.647 2805.08 312.983 2804.96C316.319 2804.84 319.121 2807.45 319.241 2810.78C319.362 2814.12 316.755 2816.92 313.419 2817.04C310.083 2817.16 307.281 2814.56 307.161 2811.22Z" fill="#22484E"/>
<path fill-rule="evenodd" clip-rule="evenodd" d="M1204.91 2063.54C1198.49 2063.78 1193.47 2069.17 1193.7 2075.59C1193.93 2082.01 1199.33 2087.03 1205.75 2086.8C1212.17 2086.57 1217.19 2081.17 1216.96 2074.75C1216.72 2068.33 1211.33 2063.31 1204.91 2063.54ZM1204.75 2059.18C1195.92 2059.5 1189.02 2066.92 1189.34 2075.75C1189.66 2084.58 1197.07 2091.48 1205.9 2091.16C1214.74 2090.84 1221.64 2083.43 1221.32 2074.6C1221 2065.77 1213.58 2058.86 1204.75 2059.18Z" fill="#22484E"/>
<path fill-rule="evenodd" clip-rule="evenodd" d="M1317.9 2354.6C1310.93 2354.85 1305.48 2360.71 1305.73 2367.68C1305.98 2374.66 1311.84 2380.11 1318.81 2379.86C1325.79 2379.6 1331.24 2373.75 1330.99 2366.77C1330.74 2359.8 1324.88 2354.35 1317.9 2354.6ZM1317.78 2351.3C1308.99 2351.62 1302.12 2359.01 1302.43 2367.8C1302.75 2376.6 1310.14 2383.47 1318.93 2383.15C1327.73 2382.83 1334.6 2375.45 1334.28 2366.65C1333.97 2357.86 1326.58 2350.99 1317.78 2351.3Z" fill="#2F2F2E"/>
<path d="M1312.32 2367.44C1312.2 2364.11 1314.8 2361.31 1318.14 2361.19C1321.48 2361.07 1324.28 2363.67 1324.4 2367.01C1324.52 2370.34 1321.91 2373.15 1318.58 2373.27C1315.24 2373.39 1312.44 2370.78 1312.32 2367.44Z" fill="#2F2F2E"/>
<path fill-rule="evenodd" clip-rule="evenodd" d="M392.709 2422.07C386.286 2422.3 381.268 2427.69 381.5 2434.12C381.731 2440.54 387.125 2445.56 393.547 2445.32C399.969 2445.09 404.988 2439.7 404.756 2433.28C404.525 2426.85 399.131 2421.84 392.709 2422.07ZM392.551 2417.71C383.721 2418.03 376.821 2425.44 377.139 2434.27C377.457 2443.1 384.874 2450 393.704 2449.69C402.535 2449.37 409.435 2441.95 409.117 2433.12C408.798 2424.29 401.382 2417.39 392.551 2417.71Z" fill="#2F2F2E"/>
<circle cx="506.688" cy="2069.27" r="15.9346" transform="rotate(177.935 506.688 2069.27)" fill="#2F2F2E"/>
<path fill-rule="evenodd" clip-rule="evenodd" d="M992.301 2317.71C985.326 2317.96 979.875 2323.82 980.127 2330.79C980.378 2337.77 986.237 2343.22 993.212 2342.97C1000.19 2342.72 1005.64 2336.86 1005.39 2329.88C1005.13 2322.91 999.276 2317.46 992.301 2317.71ZM992.182 2314.41C983.388 2314.73 976.515 2322.12 976.832 2330.91C977.149 2339.71 984.536 2346.58 993.331 2346.26C1002.13 2345.95 1009 2338.56 1008.68 2329.76C1008.36 2320.97 1000.98 2314.1 992.182 2314.41Z" fill="#2F2F2E"/>
<path d="M986.716 2330.56C986.596 2327.22 989.203 2324.42 992.539 2324.3C995.875 2324.18 998.676 2326.78 998.797 2330.12C998.917 2333.46 996.31 2336.26 992.974 2336.38C989.638 2336.5 986.837 2333.89 986.716 2330.56Z" fill="#2F2F2E"/>
<path fill-rule="evenodd" clip-rule="evenodd" d="M84.8655 2217.4C78.4434 2217.63 73.425 2223.03 73.6565 2229.45C73.888 2235.87 79.2819 2240.89 85.704 2240.66C92.1261 2240.43 97.1446 2235.03 96.913 2228.61C96.6815 2222.19 91.2877 2217.17 84.8655 2217.4ZM84.7083 2213.04C75.8779 2213.36 68.9775 2220.78 69.2959 2229.61C69.6143 2238.44 77.0308 2245.34 85.8612 2245.02C94.6916 2244.7 101.592 2237.28 101.274 2228.45C100.955 2219.62 93.5387 2212.72 84.7083 2213.04Z" fill="#2F2F2E"/>
<circle cx="130.562" cy="2582.65" r="15.9346" transform="rotate(177.935 130.562 2582.65)" fill="#2F2F2E"/>
<path fill-rule="evenodd" clip-rule="evenodd" d="M661.703 2281.01C654.728 2281.26 649.278 2287.12 649.529 2294.09C649.781 2301.07 655.639 2306.52 662.614 2306.27C669.589 2306.01 675.04 2300.16 674.788 2293.18C674.537 2286.2 668.679 2280.75 661.703 2281.01ZM661.585 2277.71C652.79 2278.03 645.917 2285.41 646.235 2294.21C646.552 2303 653.938 2309.88 662.733 2309.56C671.528 2309.24 678.4 2301.86 678.083 2293.06C677.766 2284.27 670.379 2277.39 661.585 2277.71Z" fill="#2F2F2E"/>
<path d="M656.119 2293.85C655.998 2290.52 658.605 2287.72 661.941 2287.6C665.277 2287.47 668.079 2290.08 668.199 2293.42C668.319 2296.75 665.713 2299.56 662.377 2299.68C659.041 2299.8 656.239 2297.19 656.119 2293.85Z" fill="#2F2F2E"/>
<path fill-rule="evenodd" clip-rule="evenodd" d="M634.521 2761.29C628.099 2761.52 623.081 2766.92 623.312 2773.34C623.544 2779.76 628.938 2784.78 635.36 2784.55C641.782 2784.32 646.8 2778.92 646.569 2772.5C646.337 2766.08 640.943 2761.06 634.521 2761.29ZM634.364 2756.93C625.534 2757.25 618.633 2764.66 618.952 2773.49C619.27 2782.33 626.687 2789.23 635.517 2788.91C644.347 2788.59 651.248 2781.17 650.929 2772.34C650.611 2763.51 643.195 2756.61 634.364 2756.93Z" fill="#2F2F2E"/>
<circle cx="1434.33" cy="2686.13" r="15.9346" transform="rotate(177.935 1434.33 2686.13)" fill="#2F2F2E"/>
</svg>
