<svg width="148" height="148" viewBox="0 0 148 148" fill="none" xmlns="http://www.w3.org/2000/svg">
<path fill-rule="evenodd" clip-rule="evenodd" d="M73.9723 0.64502C114.604 0.64502 147.591 33.6326 147.591 74.2638C147.591 114.895 114.604 147.883 73.9723 147.883C33.3411 147.883 0.353516 114.895 0.353516 74.2638C0.353516 33.6326 33.3411 0.64502 73.9723 0.64502ZM50.9558 115.637V58.1453H31.8425V115.637H50.9558ZM119.864 115.637V82.6681C119.864 65.0085 110.435 56.7934 97.8622 56.7934C87.7238 56.7934 83.1824 62.3692 80.6397 66.2854V58.1453H61.5313C61.7847 63.5393 61.5313 115.637 61.5313 115.637H80.6394V83.5297C80.6394 81.8112 80.7631 80.0932 81.2695 78.865C82.6484 75.4328 85.795 71.8772 91.0743 71.8772C97.9858 71.8772 100.755 77.1513 100.755 84.8767V115.637H119.864ZM41.5283 30.4232C34.9889 30.4232 30.7164 34.7225 30.7164 40.3575C30.7164 45.8737 34.8589 50.2914 41.2752 50.2914H41.3986C48.0631 50.2914 52.2113 45.8737 52.2113 40.3575C52.0877 34.7225 48.0634 30.4232 41.5283 30.4232Z" fill="#1B9BAC"/>
</svg>
