<svg width="234" height="223" viewBox="0 0 234 223" fill="#faf5e6" xmlns="http://www.w3.org/2000/svg">
<path fill-rule="evenodd" clip-rule="evenodd" d="M64.7027 0H168.79C204.524 0 233.492 28.9684 233.492 64.7027V157.537C233.492 193.271 204.524 222.24 168.79 222.24H64.7027C28.9684 222.24 0 193.271 0 157.537V64.7027C0 28.9684 28.9684 0 64.7027 0ZM64.7027 22.5053C41.3977 22.5053 22.5053 41.3977 22.5053 64.7027V157.537C22.5053 180.842 41.3977 199.734 64.7027 199.734H168.79C192.095 199.734 210.987 180.842 210.987 157.537V64.7027C210.987 41.3977 192.095 22.5053 168.79 22.5053H64.7027Z"/>
<path d="M131.387 154.971C127.944 155.106 124.771 154.668 121.868 153.655C119.032 152.71 116.703 151.393 114.88 149.705C113.124 148.017 112.01 146.059 111.538 143.831C111.065 141.536 111.47 139.206 112.753 136.843C114.508 134.008 118.019 133.164 123.286 134.312C127.269 135.122 130.003 135.561 131.489 135.628C133.042 135.696 134.358 135.493 135.438 135.02C140.367 133.4 143.135 131.645 143.743 129.754C144.148 128.336 143.27 126.682 141.11 124.792C140.232 123.982 139.253 123.171 138.173 122.361C137.092 121.551 136.181 120.741 135.438 119.931C132.063 117.433 129.396 114.563 127.438 111.322C125.547 108.014 124.771 104.436 125.108 100.587C125.446 96.739 126.087 93.5657 127.033 91.0677C127.978 88.5021 129.159 86.2403 130.577 84.2823C133.075 80.839 136.316 78.0371 140.299 75.8766C144.891 73.5135 148.57 71.9944 151.338 71.3193C156.807 70.104 162.343 70.0027 167.947 71.0154C169.838 71.353 171.458 71.9944 172.808 72.9396C174.159 73.8849 175.509 74.8638 176.859 75.8766C179.222 78.2396 179.796 80.6365 178.581 83.067C178.108 84.1473 177.366 85.025 176.353 85.7001C175.34 86.3753 174.26 86.7466 173.112 86.8142C173.247 88.6371 172.91 89.9874 172.099 90.8651C170.547 92.418 167.846 93.4307 163.998 93.9033C158.461 93.4982 154.714 93.802 152.756 94.8148C150.461 96.0301 149.617 98.6632 150.224 102.714C150.359 103.592 150.9 104.503 151.845 105.449C152.857 106.394 154.005 107.407 155.288 108.487C156.638 109.567 158.022 110.782 159.44 112.133C160.926 113.483 162.208 115.036 163.289 116.791C167.07 123.003 166.766 130.261 162.377 138.565C159.136 144.777 153.6 149.435 145.768 152.541C141.717 154.161 136.924 154.971 131.387 154.971Z"/>
<path d="M113.416 80.4339C115.711 81.6492 117.163 83.4384 117.771 85.8014C116.42 93.3632 115.205 100.891 114.125 108.385C113.045 115.812 111.998 122.057 110.985 127.121C109.973 132.117 109.264 135.864 108.859 138.363C108.521 140.861 108.116 143.359 107.643 145.857L107.036 147.984C106.901 148.726 106.766 149.401 106.631 150.009C106.496 150.684 106.361 151.393 106.225 152.136C104.335 154.296 101.769 155.377 98.5287 155.377C95.0853 155.377 92.351 154.499 90.3255 152.743C89.1102 151.798 88.9077 149.806 89.7178 146.768C90.0554 145.553 90.258 144 90.3255 142.11C90.4605 140.152 90.5956 138.531 90.7306 137.249V137.046C88.7051 137.789 86.8822 138.768 85.2618 139.983C83.6414 141.131 82.6287 141.873 82.2236 142.211C81.8185 142.481 81.2784 142.717 80.6032 142.92C79.928 143.055 79.3204 143.156 78.7803 143.224C77.4975 143.291 76.6198 143.494 76.1471 143.831C72.2312 150.853 68.7204 154.769 65.6147 155.579C63.6567 156.187 61.6988 156.322 59.7408 155.984C57.7828 155.714 56.23 154.566 55.0822 152.541C52.9217 150.515 53.4618 144.979 56.7026 135.932C58.458 131.138 60.9561 125.399 64.1968 118.715C67.5051 111.964 70.6784 106.09 73.7166 101.094C80.2656 90.3588 87.4561 81.3116 95.2879 73.9524C96.5707 73.4123 97.9548 72.8046 99.4401 72.1295C100.925 71.3868 102.377 70.9817 103.795 70.9142C105.28 70.8467 106.799 71.0155 108.352 71.4206C109.905 71.8256 111.222 72.4333 112.302 73.2435C114.8 75.1339 115.171 77.5307 113.416 80.4339ZM91.7433 107.069C90.3255 111.12 88.9077 114.867 87.4898 118.31C86.072 121.686 84.8567 124.657 83.844 127.222L91.8446 126.919C92.3847 122.598 92.9924 118.31 93.6675 114.057C94.3427 109.803 94.9841 105.55 95.5917 101.296L91.7433 107.069ZM89.0089 127.324C89.9541 127.324 90.8994 127.256 91.8446 127.121V127.02C90.9669 127.087 90.1567 127.155 89.414 127.222C88.6713 127.29 88.5363 127.324 89.0089 127.324Z"/>
</svg>
