<svg width="1460" height="6924" viewBox="0 0 1460 6924" fill="none" xmlns="http://www.w3.org/2000/svg">
<circle cx="1445.62" cy="4462.62" r="13.6046" transform="rotate(0.071439 1445.62 4462.62)" fill="#22484E"/>
<path fill-rule="evenodd" clip-rule="evenodd" d="M937.758 3745.43C943.717 3745.44 948.554 3740.62 948.561 3734.66C948.568 3728.7 943.744 3723.86 937.785 3723.86C931.826 3723.85 926.989 3728.67 926.981 3734.63C926.974 3740.59 931.799 3745.43 937.758 3745.43ZM937.754 3748.25C945.268 3748.26 951.366 3742.18 951.376 3734.66C951.385 3727.15 945.302 3721.05 937.788 3721.04C930.275 3721.03 924.176 3727.11 924.167 3734.63C924.157 3742.14 930.241 3748.24 937.754 3748.25Z" fill="#22484E"/>
<path d="M942.932 3734.65C942.928 3737.5 940.615 3739.81 937.765 3739.81C934.915 3739.8 932.607 3737.49 932.611 3734.64C932.614 3731.79 934.928 3729.48 937.778 3729.48C940.628 3729.49 942.935 3731.8 942.932 3734.65Z" fill="#22484E"/>
<path fill-rule="evenodd" clip-rule="evenodd" d="M350.665 4109.61C356.151 4109.62 360.604 4105.18 360.611 4099.69C360.618 4094.2 356.176 4089.75 350.689 4089.74C345.203 4089.74 340.749 4094.18 340.743 4099.66C340.736 4105.15 345.178 4109.6 350.665 4109.61ZM350.66 4113.34C358.204 4113.35 364.327 4107.24 364.337 4099.69C364.346 4092.15 358.238 4086.03 350.694 4086.02C343.15 4086.01 337.027 4092.12 337.017 4099.66C337.008 4107.2 343.116 4113.33 350.66 4113.34Z" fill="#22484E"/>
<path fill-rule="evenodd" clip-rule="evenodd" d="M29.0048 3740.82C34.9639 3740.83 39.8006 3736.01 39.8081 3730.05C39.8155 3724.09 34.9908 3719.25 29.0317 3719.24C23.0727 3719.24 18.2359 3724.06 18.2284 3730.02C18.221 3735.98 23.0457 3740.82 29.0048 3740.82ZM29.0013 3743.64C36.5149 3743.65 42.6134 3737.56 42.6228 3730.05C42.6322 3722.54 36.5488 3716.44 29.0352 3716.43C21.5216 3716.42 15.4231 3722.5 15.4137 3730.02C15.4043 3737.53 21.4877 3743.63 29.0013 3743.64Z" fill="#2F2F2E"/>
<path d="M34.1786 3730.04C34.175 3732.89 31.8618 3735.2 29.0118 3735.19C26.1618 3735.19 23.8544 3732.88 23.8579 3730.03C23.8615 3727.18 26.1747 3724.87 29.0247 3724.87C31.8747 3724.88 34.1822 3727.19 34.1786 3730.04Z" fill="#2F2F2E"/>
<path fill-rule="evenodd" clip-rule="evenodd" d="M405.665 3560.61C411.151 3560.62 415.604 3556.18 415.611 3550.69C415.618 3545.2 411.176 3540.75 405.689 3540.74C400.203 3540.74 395.749 3545.18 395.743 3550.66C395.736 3556.15 400.178 3560.6 405.665 3560.61ZM405.66 3564.34C413.204 3564.35 419.327 3558.24 419.337 3550.69C419.346 3543.15 413.238 3537.03 405.694 3537.02C398.15 3537.01 392.027 3543.12 392.017 3550.66C392.008 3558.2 398.116 3564.33 405.66 3564.34Z" fill="#2F2F2E"/>
<circle cx="774.622" cy="3678.62" r="13.6046" transform="rotate(0.071439 774.622 3678.62)" fill="#2F2F2E"/>
<path fill-rule="evenodd" clip-rule="evenodd" d="M1023.61 3499.41C1029.57 3499.42 1034.4 3494.59 1034.41 3488.63C1034.42 3482.68 1029.59 3477.84 1023.64 3477.83C1017.68 3477.82 1012.84 3482.65 1012.83 3488.61C1012.82 3494.57 1017.65 3499.4 1023.61 3499.41ZM1023.6 3502.23C1031.12 3502.24 1037.22 3496.15 1037.23 3488.64C1037.24 3481.12 1031.15 3475.03 1023.64 3475.02C1016.13 3475.01 1010.03 3481.09 1010.02 3488.6C1010.01 3496.12 1016.09 3502.22 1023.6 3502.23Z" fill="#2F2F2E"/>
<path d="M1028.78 3488.63C1028.78 3491.48 1026.47 3493.79 1023.62 3493.78C1020.77 3493.78 1018.46 3491.47 1018.46 3488.62C1018.46 3485.77 1020.78 3483.46 1023.63 3483.46C1026.48 3483.46 1028.79 3485.78 1028.78 3488.63Z" fill="#2F2F2E"/>
<path fill-rule="evenodd" clip-rule="evenodd" d="M899.665 4044.61C905.151 4044.62 909.604 4040.18 909.611 4034.69C909.618 4029.2 905.176 4024.75 899.689 4024.74C894.203 4024.74 889.749 4029.18 889.743 4034.66C889.736 4040.15 894.178 4044.6 899.665 4044.61ZM899.66 4048.34C907.204 4048.35 913.327 4042.24 913.337 4034.69C913.346 4027.15 907.238 4021.03 899.694 4021.02C892.15 4021.01 886.027 4027.12 886.017 4034.66C886.008 4042.2 892.116 4048.33 899.66 4048.34Z" fill="#2F2F2E"/>
<circle cx="414.622" cy="4505.62" r="13.6046" transform="rotate(0.071439 414.622 4505.62)" fill="#2F2F2E"/>
<path fill-rule="evenodd" clip-rule="evenodd" d="M1188.61 4162.41C1194.57 4162.42 1199.4 4157.59 1199.41 4151.63C1199.42 4145.68 1194.59 4140.84 1188.64 4140.83C1182.68 4140.82 1177.84 4145.65 1177.83 4151.61C1177.82 4157.57 1182.65 4162.4 1188.61 4162.41ZM1188.6 4165.23C1196.12 4165.24 1202.22 4159.15 1202.23 4151.64C1202.24 4144.12 1196.15 4138.03 1188.64 4138.02C1181.13 4138.01 1175.03 4144.09 1175.02 4151.6C1175.01 4159.12 1181.09 4165.22 1188.6 4165.23Z" fill="#2F2F2E"/>
<path d="M1193.78 4151.63C1193.78 4154.48 1191.47 4156.79 1188.62 4156.78C1185.77 4156.78 1183.46 4154.47 1183.46 4151.62C1183.46 4148.77 1185.78 4146.46 1188.63 4146.46C1191.48 4146.46 1193.79 4148.78 1193.78 4151.63Z" fill="#2F2F2E"/>
<path fill-rule="evenodd" clip-rule="evenodd" d="M1373.66 3652.61C1379.15 3652.62 1383.6 3648.18 1383.61 3642.69C1383.62 3637.2 1379.18 3632.75 1373.69 3632.74C1368.2 3632.74 1363.75 3637.18 1363.74 3642.66C1363.74 3648.15 1368.18 3652.6 1373.66 3652.61ZM1373.66 3656.34C1381.2 3656.35 1387.33 3650.24 1387.34 3642.69C1387.35 3635.15 1381.24 3629.03 1373.69 3629.02C1366.15 3629.01 1360.03 3635.12 1360.02 3642.66C1360.01 3650.2 1366.12 3656.33 1373.66 3656.34Z" fill="#2F2F2E"/>
<circle cx="564.622" cy="4296.62" r="13.6046" transform="rotate(0.071439 564.622 4296.62)" fill="#2F2F2E"/>
<circle cx="760.735" cy="4630.73" r="13.6046" transform="rotate(-175.018 760.735 4630.73)" fill="#22484E"/>
<path fill-rule="evenodd" clip-rule="evenodd" d="M514.777 5455.69C508.84 5455.17 503.608 5459.56 503.091 5465.5C502.573 5471.44 506.966 5476.67 512.903 5477.19C518.839 5477.7 524.071 5473.31 524.589 5467.37C525.106 5461.44 520.713 5456.2 514.777 5455.69ZM515.021 5452.88C507.536 5452.23 500.939 5457.77 500.287 5465.25C499.634 5472.74 505.173 5479.34 512.658 5479.99C520.143 5480.64 526.74 5475.1 527.393 5467.62C528.045 5460.13 522.507 5453.54 515.021 5452.88Z" fill="#22484E"/>
<path d="M508.699 5465.99C508.946 5463.15 511.449 5461.05 514.288 5461.3C517.127 5461.54 519.228 5464.05 518.981 5466.88C518.733 5469.72 516.231 5471.82 513.392 5471.58C510.552 5471.33 508.451 5468.83 508.699 5465.99Z" fill="#22484E"/>
<path fill-rule="evenodd" clip-rule="evenodd" d="M1130.89 5143.11C1125.42 5142.63 1120.61 5146.67 1120.13 5152.14C1119.65 5157.61 1123.7 5162.42 1129.17 5162.9C1134.63 5163.38 1139.45 5159.33 1139.92 5153.87C1140.4 5148.4 1136.36 5143.58 1130.89 5143.11ZM1131.21 5139.39C1123.7 5138.74 1117.07 5144.3 1116.42 5151.82C1115.76 5159.33 1121.33 5165.96 1128.84 5166.61C1136.36 5167.27 1142.98 5161.7 1143.64 5154.19C1144.29 5146.67 1138.73 5140.05 1131.21 5139.39Z" fill="#22484E"/>
<path fill-rule="evenodd" clip-rule="evenodd" d="M1419.8 5538.07C1413.86 5537.56 1408.63 5541.95 1408.11 5547.89C1407.6 5553.82 1411.99 5559.06 1417.93 5559.57C1423.86 5560.09 1429.09 5555.7 1429.61 5549.76C1430.13 5543.82 1425.74 5538.59 1419.8 5538.07ZM1420.04 5535.27C1412.56 5534.62 1405.96 5540.16 1405.31 5547.64C1404.66 5555.13 1410.2 5561.72 1417.68 5562.38C1425.17 5563.03 1431.76 5557.49 1432.42 5550.01C1433.07 5542.52 1427.53 5535.92 1420.04 5535.27Z" fill="#2F2F2E"/>
<path d="M1413.72 5548.38C1413.97 5545.54 1416.47 5543.44 1419.31 5543.68C1422.15 5543.93 1424.25 5546.43 1424 5549.27C1423.76 5552.11 1421.25 5554.21 1418.41 5553.96C1415.57 5553.72 1413.47 5551.21 1413.72 5548.38Z" fill="#2F2F2E"/>
<path fill-rule="evenodd" clip-rule="evenodd" d="M1029.1 5685.38C1023.63 5684.91 1018.81 5688.95 1018.34 5694.42C1017.86 5699.88 1021.9 5704.7 1027.37 5705.18C1032.84 5705.65 1037.65 5701.61 1038.13 5696.14C1038.61 5690.68 1034.56 5685.86 1029.1 5685.38ZM1029.42 5681.67C1021.9 5681.02 1015.28 5686.58 1014.62 5694.09C1013.97 5701.61 1019.53 5708.23 1027.05 5708.89C1034.56 5709.54 1041.19 5703.98 1041.84 5696.47C1042.5 5688.95 1036.93 5682.33 1029.42 5681.67Z" fill="#2F2F2E"/>
<circle cx="671.595" cy="5536.22" r="13.6046" transform="rotate(-175.018 671.595 5536.22)" fill="#2F2F2E"/>
<path fill-rule="evenodd" clip-rule="evenodd" d="M390.672 5659.99C384.735 5659.47 379.503 5663.86 378.986 5669.8C378.468 5675.73 382.861 5680.97 388.797 5681.48C394.734 5682 399.966 5677.61 400.484 5671.67C401.001 5665.74 396.608 5660.5 390.672 5659.99ZM390.916 5657.18C383.431 5656.53 376.834 5662.07 376.181 5669.55C375.529 5677.04 381.068 5683.64 388.553 5684.29C396.038 5684.94 402.635 5679.4 403.288 5671.92C403.94 5664.43 398.401 5657.83 390.916 5657.18Z" fill="#2F2F2E"/>
<path d="M384.594 5670.29C384.841 5667.45 387.344 5665.35 390.183 5665.59C393.022 5665.84 395.123 5668.34 394.875 5671.18C394.628 5674.02 392.126 5676.12 389.286 5675.88C386.447 5675.63 384.346 5673.13 384.594 5670.29Z" fill="#2F2F2E"/>
<path fill-rule="evenodd" clip-rule="evenodd" d="M642.657 5100.9C637.191 5100.42 632.374 5104.47 631.898 5109.93C631.421 5115.4 635.466 5120.21 640.932 5120.69C646.398 5121.17 651.215 5117.12 651.691 5111.66C652.168 5106.19 648.123 5101.37 642.657 5100.9ZM642.981 5097.19C635.465 5096.53 628.842 5102.09 628.186 5109.61C627.531 5117.12 633.093 5123.75 640.608 5124.4C648.124 5125.06 654.747 5119.5 655.403 5111.98C656.058 5104.47 650.496 5097.84 642.981 5097.19Z" fill="#2F2F2E"/>
<circle cx="1361.91" cy="4744.41" r="13.6046" transform="rotate(-175.018 1361.91 4744.41)" fill="#2F2F2E"/>
<path fill-rule="evenodd" clip-rule="evenodd" d="M300.542 5018.77C294.606 5018.25 289.374 5022.64 288.856 5028.58C288.339 5034.52 292.732 5039.75 298.668 5040.27C304.605 5040.78 309.837 5036.39 310.354 5030.45C310.872 5024.52 306.479 5019.28 300.542 5018.77ZM300.787 5015.96C293.302 5015.31 286.705 5020.85 286.052 5028.33C285.4 5035.82 290.939 5042.42 298.424 5043.07C305.909 5043.72 312.506 5038.18 313.159 5030.7C313.811 5023.21 308.272 5016.62 300.787 5015.96Z" fill="#2F2F2E"/>
<path d="M294.465 5029.07C294.712 5026.23 297.214 5024.13 300.054 5024.38C302.893 5024.62 304.994 5027.13 304.746 5029.96C304.499 5032.8 301.996 5034.9 299.157 5034.66C296.318 5034.41 294.217 5031.91 294.465 5029.07Z" fill="#2F2F2E"/>
<path fill-rule="evenodd" clip-rule="evenodd" d="M72.524 5510.85C67.0581 5510.38 62.2408 5514.42 61.7644 5519.89C61.2879 5525.35 65.3325 5530.17 70.7984 5530.65C76.2643 5531.12 81.0815 5527.08 81.558 5521.61C82.0345 5516.15 77.9898 5511.33 72.524 5510.85ZM72.8475 5507.14C65.3319 5506.49 58.7082 5512.05 58.053 5519.56C57.3979 5527.08 62.9593 5533.7 70.4749 5534.36C77.9904 5535.01 84.6141 5529.45 85.2693 5521.94C85.9245 5514.42 80.3631 5507.8 72.8475 5507.14Z" fill="#2F2F2E"/>
<circle cx="933.728" cy="4938.47" r="13.6046" transform="rotate(-175.018 933.728 4938.47)" fill="#2F2F2E"/>
<circle cx="1389.72" cy="6908.94" r="13.6046" transform="rotate(3.35329 1389.72 6908.94)" fill="#22484E"/>
<path fill-rule="evenodd" clip-rule="evenodd" d="M923.745 6163.85C929.694 6164.2 934.799 6159.66 935.147 6153.71C935.496 6147.76 930.956 6142.66 925.007 6142.31C919.058 6141.96 913.953 6146.5 913.604 6152.45C913.256 6158.4 917.796 6163.5 923.745 6163.85ZM923.58 6166.66C931.081 6167.1 937.518 6161.38 937.957 6153.88C938.397 6146.38 932.672 6139.94 925.172 6139.5C917.671 6139.06 911.234 6144.79 910.795 6152.29C910.355 6159.79 916.079 6166.22 923.58 6166.66Z" fill="#22484E"/>
<path d="M929.527 6153.38C929.361 6156.23 926.919 6158.4 924.074 6158.23C921.229 6158.07 919.058 6155.63 919.224 6152.78C919.391 6149.94 921.833 6147.76 924.678 6147.93C927.523 6148.1 929.694 6150.54 929.527 6153.38Z" fill="#22484E"/>
<path fill-rule="evenodd" clip-rule="evenodd" d="M316.766 6493.82C322.243 6494.14 326.943 6489.96 327.264 6484.49C327.585 6479.01 323.405 6474.31 317.928 6473.99C312.451 6473.67 307.75 6477.85 307.43 6483.32C307.109 6488.8 311.289 6493.5 316.766 6493.82ZM316.548 6497.54C324.079 6497.98 330.542 6492.24 330.983 6484.7C331.425 6477.17 325.677 6470.71 318.146 6470.27C310.615 6469.83 304.152 6475.58 303.711 6483.11C303.269 6490.64 309.017 6497.1 316.548 6497.54Z" fill="#22484E"/>
<path fill-rule="evenodd" clip-rule="evenodd" d="M16.7459 6107.23C22.6948 6107.58 27.7998 6103.04 28.1484 6097.09C28.497 6091.14 23.957 6086.03 18.0082 6085.68C12.0593 6085.34 6.95427 6089.88 6.6057 6095.82C6.25714 6101.77 10.7971 6106.88 16.7459 6107.23ZM16.5813 6110.04C24.082 6110.48 30.5188 6104.75 30.9583 6097.25C31.3978 6089.75 25.6736 6083.31 18.1728 6082.87C10.6721 6082.43 4.23528 6088.16 3.79579 6095.66C3.3563 6103.16 9.08056 6109.6 16.5813 6110.04Z" fill="#2F2F2E"/>
<path d="M22.5286 6096.76C22.3619 6099.6 19.9203 6101.77 17.0752 6101.61C14.2301 6101.44 12.0588 6099 12.2255 6096.15C12.3922 6093.31 14.8338 6091.14 17.6789 6091.3C20.524 6091.47 22.6953 6093.91 22.5286 6096.76Z" fill="#2F2F2E"/>
<path fill-rule="evenodd" clip-rule="evenodd" d="M403.104 5948.87C408.582 5949.19 413.282 5945.01 413.603 5939.54C413.924 5934.06 409.744 5929.36 404.267 5929.04C398.789 5928.72 394.089 5932.9 393.768 5938.37C393.447 5943.85 397.627 5948.55 403.104 5948.87ZM402.887 5952.59C410.418 5953.03 416.881 5947.29 417.322 5939.75C417.763 5932.22 412.016 5925.76 404.485 5925.32C396.953 5924.88 390.49 5930.62 390.049 5938.16C389.608 5945.69 395.355 5952.15 402.887 5952.59Z" fill="#2F2F2E"/>
<circle cx="787.377" cy="6435.38" r="13.6046" transform="rotate(3.35329 787.377 6435.38)" fill="#2F2F2E"/>
<path fill-rule="evenodd" clip-rule="evenodd" d="M1023.54 5923.15C1029.49 5923.5 1034.59 5918.96 1034.94 5913.01C1035.29 5907.06 1030.75 5901.95 1024.8 5901.61C1018.85 5901.26 1013.75 5905.8 1013.4 5911.75C1013.05 5917.69 1017.59 5922.8 1023.54 5923.15ZM1023.37 5925.96C1030.87 5926.4 1037.31 5920.67 1037.75 5913.17C1038.19 5905.67 1032.47 5899.24 1024.97 5898.8C1017.46 5898.36 1011.03 5904.08 1010.59 5911.58C1010.15 5919.08 1015.87 5925.52 1023.37 5925.96Z" fill="#2F2F2E"/>
<path d="M1029.32 5912.68C1029.15 5915.52 1026.71 5917.7 1023.87 5917.53C1021.02 5917.36 1018.85 5914.92 1019.02 5912.08C1019.18 5909.23 1021.63 5907.06 1024.47 5907.23C1027.32 5907.39 1029.49 5909.83 1029.32 5912.68Z" fill="#2F2F2E"/>
<path fill-rule="evenodd" clip-rule="evenodd" d="M853.854 6677.35C859.331 6677.67 864.032 6673.49 864.353 6668.02C864.674 6662.54 860.494 6657.84 855.016 6657.52C849.539 6657.2 844.839 6661.38 844.518 6666.85C844.197 6672.33 848.377 6677.03 853.854 6677.35ZM853.636 6681.07C861.167 6681.51 867.63 6675.77 868.072 6668.23C868.513 6660.7 862.765 6654.24 855.234 6653.8C847.703 6653.36 841.24 6659.11 840.799 6666.64C840.358 6674.17 846.105 6680.63 853.636 6681.07Z" fill="#2F2F2E"/>
<circle cx="312.377" cy="6879.38" r="13.6046" transform="rotate(3.35329 312.377 6879.38)" fill="#2F2F2E"/>
<path fill-rule="evenodd" clip-rule="evenodd" d="M1150.31 6594.51C1156.26 6594.86 1161.37 6590.32 1161.72 6584.37C1162.06 6578.42 1157.52 6573.31 1151.57 6572.96C1145.63 6572.62 1140.52 6577.16 1140.17 6583.1C1139.82 6589.05 1144.36 6594.16 1150.31 6594.51ZM1150.15 6597.32C1157.65 6597.76 1164.09 6592.03 1164.52 6584.53C1164.96 6577.03 1159.24 6570.59 1151.74 6570.15C1144.24 6569.71 1137.8 6575.44 1137.36 6582.94C1136.92 6590.44 1142.65 6596.88 1150.15 6597.32Z" fill="#2F2F2E"/>
<path d="M1156.1 6584.04C1155.93 6586.88 1153.49 6589.05 1150.64 6588.89C1147.8 6588.72 1145.63 6586.28 1145.79 6583.43C1145.96 6580.59 1148.4 6578.42 1151.25 6578.58C1154.09 6578.75 1156.26 6581.19 1156.1 6584.04Z" fill="#2F2F2E"/>
<path fill-rule="evenodd" clip-rule="evenodd" d="M1364.25 6096.14C1369.73 6096.46 1374.43 6092.28 1374.75 6086.8C1375.07 6081.32 1370.89 6076.62 1365.41 6076.3C1359.94 6075.98 1355.24 6080.16 1354.91 6085.64C1354.59 6091.12 1358.77 6095.82 1364.25 6096.14ZM1364.03 6099.86C1371.56 6100.3 1378.03 6094.55 1378.47 6087.02C1378.91 6079.49 1373.16 6073.02 1365.63 6072.58C1358.1 6072.14 1351.64 6077.89 1351.2 6085.42C1350.75 6092.95 1356.5 6099.41 1364.03 6099.86Z" fill="#2F2F2E"/>
<circle cx="519.666" cy="6692.77" r="13.6046" transform="rotate(3.35329 519.666 6692.77)" fill="#2F2F2E"/>
<circle cx="1442.62" cy="987.622" r="13.6046" transform="rotate(0.071439 1442.62 987.622)" fill="#22484E"/>
<path fill-rule="evenodd" clip-rule="evenodd" d="M934.758 270.435C940.717 270.442 945.554 265.617 945.561 259.658C945.568 253.699 940.744 248.863 934.785 248.855C928.826 248.848 923.989 253.672 923.981 259.631C923.974 265.591 928.799 270.427 934.758 270.435ZM934.754 273.25C942.268 273.259 948.366 267.176 948.376 259.662C948.385 252.148 942.302 246.05 934.788 246.04C927.275 246.031 921.176 252.114 921.167 259.628C921.157 267.142 927.241 273.24 934.754 273.25Z" fill="#22484E"/>
<path d="M939.932 259.651C939.928 262.501 937.615 264.809 934.765 264.805C931.915 264.802 929.607 262.489 929.611 259.639C929.614 256.789 931.928 254.481 934.778 254.485C937.628 254.488 939.935 256.801 939.932 259.651Z" fill="#22484E"/>
<path fill-rule="evenodd" clip-rule="evenodd" d="M347.665 634.611C353.151 634.618 357.604 630.176 357.611 624.689C357.618 619.203 353.176 614.749 347.689 614.742C342.203 614.736 337.749 619.178 337.743 624.664C337.736 630.151 342.178 634.604 347.665 634.611ZM347.66 638.337C355.204 638.346 361.327 632.238 361.337 624.694C361.346 617.15 355.238 611.026 347.694 611.017C340.15 611.008 334.027 617.116 334.017 624.66C334.008 632.204 340.116 638.327 347.66 638.337Z" fill="#22484E"/>
<path fill-rule="evenodd" clip-rule="evenodd" d="M26.0048 265.824C31.9639 265.832 36.8006 261.007 36.8081 255.048C36.8155 249.089 31.9908 244.252 26.0317 244.245C20.0727 244.237 15.2359 249.062 15.2284 255.021C15.221 260.98 20.0457 265.817 26.0048 265.824ZM26.0013 268.639C33.5149 268.648 39.6134 262.565 39.6228 255.051C39.6322 247.538 33.5488 241.439 26.0352 241.43C18.5216 241.42 12.4231 247.504 12.4137 255.017C12.4043 262.531 18.4877 268.63 26.0013 268.639Z" fill="#2F2F2E"/>
<path d="M31.1786 255.041C31.175 257.891 28.8618 260.198 26.0118 260.195C23.1618 260.191 20.8544 257.878 20.8579 255.028C20.8615 252.178 23.1747 249.87 26.0247 249.874C28.8747 249.878 31.1822 252.191 31.1786 255.041Z" fill="#2F2F2E"/>
<path fill-rule="evenodd" clip-rule="evenodd" d="M402.665 85.6111C408.151 85.618 412.604 81.1758 412.611 75.6892C412.618 70.2026 408.176 65.7493 402.689 65.7424C397.203 65.7356 392.749 70.1778 392.743 75.6644C392.736 81.151 397.178 85.6043 402.665 85.6111ZM402.66 89.3365C410.204 89.3459 416.327 83.2379 416.337 75.6938C416.346 68.1497 410.238 62.0264 402.694 62.017C395.15 62.0076 389.027 68.1157 389.017 75.6597C389.008 83.2038 395.116 89.3271 402.66 89.3365Z" fill="#2F2F2E"/>
<circle cx="771.622" cy="203.622" r="13.6046" transform="rotate(0.071439 771.622 203.622)" fill="#2F2F2E"/>
<path fill-rule="evenodd" clip-rule="evenodd" d="M1020.61 24.4113C1026.57 24.4188 1031.4 19.594 1031.41 13.635C1031.42 7.67592 1026.59 2.83913 1020.64 2.8317C1014.68 2.82427 1009.84 7.64901 1009.83 13.6081C1009.82 19.5671 1014.65 24.4039 1020.61 24.4113ZM1020.6 27.2261C1028.12 27.2354 1034.22 21.1521 1034.23 13.6385C1034.24 6.12489 1028.15 0.0263311 1020.64 0.0169628C1013.13 0.0075945 1007.03 6.09097 1007.02 13.6046C1007.01 21.1181 1013.09 27.2167 1020.6 27.2261Z" fill="#2F2F2E"/>
<path d="M1025.78 13.628C1025.78 16.4779 1023.47 18.7854 1020.62 18.7819C1017.77 18.7783 1015.46 16.4651 1015.46 13.6151C1015.46 10.7651 1017.78 8.45762 1020.63 8.46117C1023.48 8.46472 1025.79 10.778 1025.78 13.628Z" fill="#2F2F2E"/>
<path fill-rule="evenodd" clip-rule="evenodd" d="M896.665 569.611C902.151 569.618 906.604 565.176 906.611 559.689C906.618 554.203 902.176 549.749 896.689 549.742C891.203 549.736 886.749 554.178 886.743 559.664C886.736 565.151 891.178 569.604 896.665 569.611ZM896.66 573.337C904.204 573.346 910.327 567.238 910.337 559.694C910.346 552.15 904.238 546.026 896.694 546.017C889.15 546.008 883.027 552.116 883.017 559.66C883.008 567.204 889.116 573.327 896.66 573.337Z" fill="#2F2F2E"/>
<circle cx="411.622" cy="1030.62" r="13.6046" transform="rotate(0.071439 411.622 1030.62)" fill="#2F2F2E"/>
<path fill-rule="evenodd" clip-rule="evenodd" d="M1185.61 687.411C1191.57 687.419 1196.4 682.594 1196.41 676.635C1196.42 670.676 1191.59 665.839 1185.64 665.832C1179.68 665.824 1174.84 670.649 1174.83 676.608C1174.82 682.567 1179.65 687.404 1185.61 687.411ZM1185.6 690.226C1193.12 690.235 1199.22 684.152 1199.23 676.638C1199.24 669.125 1193.15 663.026 1185.64 663.017C1178.13 663.008 1172.03 669.091 1172.02 676.605C1172.01 684.118 1178.09 690.217 1185.6 690.226Z" fill="#2F2F2E"/>
<path d="M1190.78 676.628C1190.78 679.478 1188.47 681.785 1185.62 681.782C1182.77 681.778 1180.46 679.465 1180.46 676.615C1180.46 673.765 1182.78 671.458 1185.63 671.461C1188.48 671.465 1190.79 673.778 1190.78 676.628Z" fill="#2F2F2E"/>
<path fill-rule="evenodd" clip-rule="evenodd" d="M1370.66 177.611C1376.15 177.618 1380.6 173.176 1380.61 167.689C1380.62 162.203 1376.18 157.749 1370.69 157.742C1365.2 157.736 1360.75 162.178 1360.74 167.664C1360.74 173.151 1365.18 177.604 1370.66 177.611ZM1370.66 181.337C1378.2 181.346 1384.33 175.238 1384.34 167.694C1384.35 160.15 1378.24 154.026 1370.69 154.017C1363.15 154.008 1357.03 160.116 1357.02 167.66C1357.01 175.204 1363.12 181.327 1370.66 181.337Z" fill="#2F2F2E"/>
<circle cx="561.622" cy="821.622" r="13.6046" transform="rotate(0.071439 561.622 821.622)" fill="#2F2F2E"/>
<circle cx="757.735" cy="1155.73" r="13.6046" transform="rotate(-175.018 757.735 1155.73)" fill="#22484E"/>
<path fill-rule="evenodd" clip-rule="evenodd" d="M511.777 1980.69C505.84 1980.17 500.608 1984.56 500.091 1990.5C499.573 1996.44 503.966 2001.67 509.903 2002.19C515.839 2002.7 521.071 1998.31 521.589 1992.37C522.106 1986.44 517.713 1981.2 511.777 1980.69ZM512.021 1977.88C504.536 1977.23 497.939 1982.77 497.287 1990.25C496.634 1997.74 502.173 2004.34 509.658 2004.99C517.143 2005.64 523.74 2000.1 524.393 1992.62C525.045 1985.13 519.507 1978.54 512.021 1977.88Z" fill="#22484E"/>
<path d="M505.699 1990.99C505.946 1988.15 508.449 1986.05 511.288 1986.3C514.127 1986.54 516.228 1989.05 515.981 1991.88C515.733 1994.72 513.231 1996.82 510.392 1996.58C507.552 1996.33 505.451 1993.83 505.699 1990.99Z" fill="#22484E"/>
<path fill-rule="evenodd" clip-rule="evenodd" d="M1127.89 1668.11C1122.42 1667.63 1117.61 1671.67 1117.13 1677.14C1116.65 1682.61 1120.7 1687.42 1126.17 1687.9C1131.63 1688.38 1136.45 1684.33 1136.92 1678.87C1137.4 1673.4 1133.36 1668.58 1127.89 1668.11ZM1128.21 1664.39C1120.7 1663.74 1114.07 1669.3 1113.42 1676.82C1112.76 1684.33 1118.33 1690.96 1125.84 1691.61C1133.36 1692.27 1139.98 1686.7 1140.64 1679.19C1141.29 1671.67 1135.73 1665.05 1128.21 1664.39Z" fill="#22484E"/>
<path fill-rule="evenodd" clip-rule="evenodd" d="M1416.8 2063.08C1410.86 2062.56 1405.63 2066.95 1405.11 2072.89C1404.6 2078.82 1408.99 2084.06 1414.93 2084.57C1420.86 2085.09 1426.09 2080.7 1426.61 2074.76C1427.13 2068.82 1422.74 2063.59 1416.8 2063.08ZM1417.04 2060.27C1409.56 2059.62 1402.96 2065.16 1402.31 2072.64C1401.66 2080.13 1407.2 2086.72 1414.68 2087.38C1422.17 2088.03 1428.76 2082.49 1429.42 2075.01C1430.07 2067.52 1424.53 2060.92 1417.04 2060.27Z" fill="#2F2F2E"/>
<path d="M1410.72 2073.38C1410.97 2070.54 1413.47 2068.44 1416.31 2068.68C1419.15 2068.93 1421.25 2071.43 1421 2074.27C1420.76 2077.11 1418.25 2079.21 1415.41 2078.97C1412.57 2078.72 1410.47 2076.22 1410.72 2073.38Z" fill="#2F2F2E"/>
<path fill-rule="evenodd" clip-rule="evenodd" d="M1026.1 2210.38C1020.63 2209.91 1015.81 2213.95 1015.34 2219.42C1014.86 2224.88 1018.9 2229.7 1024.37 2230.18C1029.84 2230.65 1034.65 2226.61 1035.13 2221.14C1035.61 2215.68 1031.56 2210.86 1026.1 2210.38ZM1026.42 2206.67C1018.9 2206.02 1012.28 2211.58 1011.62 2219.09C1010.97 2226.61 1016.53 2233.23 1024.05 2233.89C1031.56 2234.54 1038.19 2228.98 1038.84 2221.47C1039.5 2213.95 1033.93 2207.33 1026.42 2206.67Z" fill="#2F2F2E"/>
<circle cx="668.595" cy="2061.22" r="13.6046" transform="rotate(-175.018 668.595 2061.22)" fill="#2F2F2E"/>
<path fill-rule="evenodd" clip-rule="evenodd" d="M387.672 2184.99C381.735 2184.47 376.503 2188.86 375.986 2194.8C375.468 2200.73 379.861 2205.97 385.798 2206.48C391.734 2207 396.966 2202.61 397.484 2196.67C398.001 2190.74 393.608 2185.5 387.672 2184.99ZM387.916 2182.18C380.431 2181.53 373.834 2187.07 373.182 2194.55C372.529 2202.04 378.068 2208.64 385.553 2209.29C393.038 2209.94 399.635 2204.4 400.288 2196.92C400.941 2189.43 395.402 2182.83 387.916 2182.18Z" fill="#2F2F2E"/>
<path d="M381.594 2195.29C381.841 2192.45 384.344 2190.35 387.183 2190.59C390.022 2190.84 392.123 2193.34 391.876 2196.18C391.628 2199.02 389.126 2201.12 386.287 2200.88C383.447 2200.63 381.346 2198.13 381.594 2195.29Z" fill="#2F2F2E"/>
<path fill-rule="evenodd" clip-rule="evenodd" d="M639.657 1625.9C634.191 1625.42 629.374 1629.47 628.898 1634.93C628.421 1640.4 632.466 1645.21 637.932 1645.69C643.398 1646.17 648.215 1642.12 648.691 1636.66C649.168 1631.19 645.123 1626.37 639.657 1625.9ZM639.981 1622.19C632.465 1621.53 625.842 1627.09 625.186 1634.61C624.531 1642.12 630.093 1648.75 637.608 1649.4C645.124 1650.06 651.747 1644.5 652.403 1636.98C653.058 1629.47 647.496 1622.84 639.981 1622.19Z" fill="#2F2F2E"/>
<circle cx="1358.91" cy="1269.41" r="13.6046" transform="rotate(-175.018 1358.91 1269.41)" fill="#2F2F2E"/>
<path fill-rule="evenodd" clip-rule="evenodd" d="M297.542 1543.77C291.606 1543.25 286.374 1547.64 285.856 1553.58C285.339 1559.52 289.732 1564.75 295.668 1565.27C301.605 1565.78 306.837 1561.39 307.354 1555.45C307.872 1549.52 303.479 1544.28 297.542 1543.77ZM297.787 1540.96C290.302 1540.31 283.705 1545.85 283.052 1553.33C282.4 1560.82 287.939 1567.42 295.424 1568.07C302.909 1568.72 309.506 1563.18 310.159 1555.7C310.811 1548.21 305.272 1541.62 297.787 1540.96Z" fill="#2F2F2E"/>
<path d="M291.465 1554.07C291.712 1551.23 294.214 1549.13 297.054 1549.38C299.893 1549.62 301.994 1552.13 301.746 1554.96C301.499 1557.8 298.996 1559.9 296.157 1559.66C293.318 1559.41 291.217 1556.91 291.465 1554.07Z" fill="#2F2F2E"/>
<path fill-rule="evenodd" clip-rule="evenodd" d="M69.524 2035.85C64.0581 2035.38 59.2408 2039.42 58.7644 2044.89C58.2879 2050.35 62.3325 2055.17 67.7984 2055.65C73.2643 2056.12 78.0815 2052.08 78.558 2046.61C79.0345 2041.15 74.9898 2036.33 69.524 2035.85ZM69.8475 2032.14C62.3319 2031.49 55.7082 2037.05 55.053 2044.56C54.3979 2052.08 59.9593 2058.7 67.4749 2059.36C74.9904 2060.01 81.6141 2054.45 82.2693 2046.94C82.9245 2039.42 77.3631 2032.8 69.8475 2032.14Z" fill="#2F2F2E"/>
<circle cx="930.728" cy="1463.47" r="13.6046" transform="rotate(-175.018 930.728 1463.47)" fill="#2F2F2E"/>
<circle cx="1386.72" cy="3433.94" r="13.6046" transform="rotate(3.35329 1386.72 3433.94)" fill="#22484E"/>
<path fill-rule="evenodd" clip-rule="evenodd" d="M920.745 2688.85C926.694 2689.2 931.799 2684.66 932.147 2678.71C932.496 2672.76 927.956 2667.66 922.007 2667.31C916.058 2666.96 910.953 2671.5 910.604 2677.45C910.256 2683.4 914.796 2688.5 920.745 2688.85ZM920.58 2691.66C928.081 2692.1 934.518 2686.38 934.957 2678.88C935.397 2671.38 929.672 2664.94 922.172 2664.5C914.671 2664.06 908.234 2669.79 907.795 2677.29C907.355 2684.79 913.079 2691.22 920.58 2691.66Z" fill="#22484E"/>
<path d="M926.527 2678.38C926.361 2681.23 923.919 2683.4 921.074 2683.23C918.229 2683.07 916.058 2680.63 916.224 2677.78C916.391 2674.94 918.833 2672.76 921.678 2672.93C924.523 2673.1 926.694 2675.54 926.527 2678.38Z" fill="#22484E"/>
<path fill-rule="evenodd" clip-rule="evenodd" d="M313.766 3018.82C319.243 3019.14 323.943 3014.96 324.264 3009.49C324.585 3004.01 320.405 2999.31 314.928 2998.99C309.451 2998.67 304.75 3002.85 304.43 3008.32C304.109 3013.8 308.289 3018.5 313.766 3018.82ZM313.548 3022.54C321.079 3022.98 327.542 3017.24 327.983 3009.7C328.425 3002.17 322.677 2995.71 315.146 2995.27C307.615 2994.83 301.152 3000.58 300.711 3008.11C300.269 3015.64 306.017 3022.1 313.548 3022.54Z" fill="#22484E"/>
<path fill-rule="evenodd" clip-rule="evenodd" d="M13.7459 2632.23C19.6948 2632.58 24.7998 2628.04 25.1484 2622.09C25.497 2616.14 20.957 2611.03 15.0082 2610.68C9.05933 2610.34 3.95427 2614.88 3.6057 2620.82C3.25714 2626.77 7.79708 2631.88 13.7459 2632.23ZM13.5813 2635.04C21.082 2635.48 27.5188 2629.75 27.9583 2622.25C28.3978 2614.75 22.6736 2608.31 15.1728 2607.87C7.67209 2607.43 1.23528 2613.16 0.795787 2620.66C0.356298 2628.16 6.08056 2634.6 13.5813 2635.04Z" fill="#2F2F2E"/>
<path d="M19.5286 2621.76C19.3619 2624.6 16.9203 2626.77 14.0752 2626.61C11.2301 2626.44 9.05884 2624 9.22554 2621.15C9.39224 2618.31 11.8338 2616.14 14.6789 2616.3C17.524 2616.47 19.6953 2618.91 19.5286 2621.76Z" fill="#2F2F2E"/>
<path fill-rule="evenodd" clip-rule="evenodd" d="M400.104 2473.87C405.582 2474.19 410.282 2470.01 410.603 2464.54C410.924 2459.06 406.744 2454.36 401.267 2454.04C395.789 2453.72 391.089 2457.9 390.768 2463.37C390.447 2468.85 394.627 2473.55 400.104 2473.87ZM399.887 2477.59C407.418 2478.03 413.881 2472.28 414.322 2464.75C414.763 2457.22 409.016 2450.76 401.485 2450.32C393.953 2449.88 387.49 2455.62 387.049 2463.16C386.608 2470.69 392.355 2477.15 399.887 2477.59Z" fill="#2F2F2E"/>
<circle cx="784.377" cy="2960.38" r="13.6046" transform="rotate(3.35329 784.377 2960.38)" fill="#2F2F2E"/>
<path fill-rule="evenodd" clip-rule="evenodd" d="M1020.54 2448.15C1026.49 2448.5 1031.59 2443.96 1031.94 2438.01C1032.29 2432.06 1027.75 2426.95 1021.8 2426.61C1015.85 2426.26 1010.75 2430.8 1010.4 2436.75C1010.05 2442.69 1014.59 2447.8 1020.54 2448.15ZM1020.37 2450.96C1027.87 2451.4 1034.31 2445.67 1034.75 2438.17C1035.19 2430.67 1029.47 2424.24 1021.97 2423.8C1014.46 2423.36 1008.03 2429.08 1007.59 2436.58C1007.15 2444.08 1012.87 2450.52 1020.37 2450.96Z" fill="#2F2F2E"/>
<path d="M1026.32 2437.68C1026.15 2440.52 1023.71 2442.7 1020.87 2442.53C1018.02 2442.36 1015.85 2439.92 1016.02 2437.08C1016.18 2434.23 1018.63 2432.06 1021.47 2432.23C1024.32 2432.39 1026.49 2434.83 1026.32 2437.68Z" fill="#2F2F2E"/>
<path fill-rule="evenodd" clip-rule="evenodd" d="M850.854 3202.35C856.331 3202.67 861.032 3198.49 861.353 3193.02C861.674 3187.54 857.494 3182.84 852.016 3182.52C846.539 3182.2 841.839 3186.38 841.518 3191.85C841.197 3197.33 845.377 3202.03 850.854 3202.35ZM850.636 3206.07C858.167 3206.51 864.63 3200.77 865.072 3193.23C865.513 3185.7 859.765 3179.24 852.234 3178.8C844.703 3178.36 838.24 3184.11 837.799 3191.64C837.358 3199.17 843.105 3205.63 850.636 3206.07Z" fill="#2F2F2E"/>
<circle cx="94.1715" cy="3423.93" r="13.6046" transform="rotate(3.35329 94.1715 3423.93)" fill="#2F2F2E"/>
<path fill-rule="evenodd" clip-rule="evenodd" d="M1147.31 3119.51C1153.26 3119.86 1158.37 3115.32 1158.72 3109.37C1159.06 3103.42 1154.52 3098.31 1148.57 3097.96C1142.63 3097.62 1137.52 3102.16 1137.17 3108.1C1136.82 3114.05 1141.36 3119.16 1147.31 3119.51ZM1147.15 3122.32C1154.65 3122.76 1161.09 3117.03 1161.52 3109.53C1161.96 3102.03 1156.24 3095.59 1148.74 3095.15C1141.24 3094.71 1134.8 3100.44 1134.36 3107.94C1133.92 3115.44 1139.65 3121.88 1147.15 3122.32Z" fill="#2F2F2E"/>
<path d="M1153.1 3109.04C1152.93 3111.88 1150.49 3114.05 1147.64 3113.89C1144.8 3113.72 1142.63 3111.28 1142.79 3108.43C1142.96 3105.59 1145.4 3103.42 1148.25 3103.58C1151.09 3103.75 1153.26 3106.19 1153.1 3109.04Z" fill="#2F2F2E"/>
<path fill-rule="evenodd" clip-rule="evenodd" d="M1361.25 2621.14C1366.73 2621.46 1371.43 2617.28 1371.75 2611.8C1372.07 2606.32 1367.89 2601.62 1362.41 2601.3C1356.94 2600.98 1352.24 2605.16 1351.91 2610.64C1351.59 2616.12 1355.77 2620.82 1361.25 2621.14ZM1361.03 2624.86C1368.56 2625.3 1375.03 2619.55 1375.47 2612.02C1375.91 2604.49 1370.16 2598.02 1362.63 2597.58C1355.1 2597.14 1348.64 2602.89 1348.2 2610.42C1347.75 2617.95 1353.5 2624.41 1361.03 2624.86Z" fill="#2F2F2E"/>
<circle cx="516.666" cy="3217.77" r="13.6046" transform="rotate(3.35329 516.666 3217.77)" fill="#2F2F2E"/>
</svg>
