<svg width="138" height="138" viewBox="0 0 138 138" fill="none" xmlns="http://www.w3.org/2000/svg">
<path fill-rule="evenodd" clip-rule="evenodd" d="M69.0045 123.732C99.2297 123.732 123.732 99.2297 123.732 69.0045C123.732 38.7792 99.2297 14.2768 69.0045 14.2768C38.7792 14.2768 14.2768 38.7792 14.2768 69.0045C14.2768 99.2297 38.7792 123.732 69.0045 123.732ZM69.0045 138.009C107.115 138.009 138.009 107.115 138.009 69.0045C138.009 30.8944 107.115 0 69.0045 0C30.8944 0 0 30.8944 0 69.0045C0 107.115 30.8944 138.009 69.0045 138.009Z" fill="#22484e"/>
<path d="M95.1786 69.0045C95.1786 83.46 83.46 95.1786 69.0045 95.1786C54.5489 95.1786 42.8304 83.46 42.8304 69.0045C42.8304 54.5489 54.5489 42.8304 69.0045 42.8304C83.46 42.8304 95.1786 54.5489 95.1786 69.0045Z" fill="#22484e"/>
</svg>
