<svg width="1391" height="6940" viewBox="0 0 1391 6940" fill="none" xmlns="http://www.w3.org/2000/svg">
<circle cx="277.417" cy="1257.42" r="11.4031" transform="rotate(0.071439 277.417 1257.42)" fill="#22484E"/>
<path fill-rule="evenodd" clip-rule="evenodd" d="M651.764 35.7985C656.759 35.8048 660.813 31.7608 660.819 26.766C660.826 21.7712 656.782 17.7171 651.787 17.7109C646.792 17.7047 642.738 21.7487 642.732 26.7434C642.726 31.7382 646.77 35.7923 651.764 35.7985ZM651.761 38.1578C658.059 38.1657 663.171 33.0667 663.179 26.7689C663.187 20.4712 658.088 15.3595 651.79 15.3516C645.492 15.3438 640.38 20.4427 640.373 26.7405C640.365 33.0383 645.464 38.15 651.761 38.1578Z" fill="#22484E"/>
<path d="M656.101 26.7601C656.098 29.1489 654.159 31.083 651.77 31.08C649.381 31.0771 647.447 29.1381 647.45 26.7493C647.453 24.3605 649.392 22.4264 651.781 22.4294C654.17 22.4324 656.104 24.3713 656.101 26.7601Z" fill="#22484E"/>
<circle cx="39.4172" cy="800.417" r="11.4031" transform="rotate(0.071439 39.4172 800.417)" fill="#2F2F2E"/>
<path fill-rule="evenodd" clip-rule="evenodd" d="M888.453 786.79C893.052 786.796 896.784 783.073 896.79 778.474C896.796 773.875 893.073 770.143 888.474 770.137C883.875 770.131 880.142 773.854 880.137 778.453C880.131 783.052 883.854 786.785 888.453 786.79ZM888.449 789.913C894.772 789.921 899.905 784.801 899.913 778.478C899.921 772.155 894.801 767.022 888.478 767.014C882.154 767.006 877.022 772.126 877.014 778.449C877.006 784.773 882.126 789.905 888.449 789.913Z" fill="#22484E"/>
<path fill-rule="evenodd" clip-rule="evenodd" d="M88.2821 21.0959C93.2769 21.1021 97.331 17.0581 97.3373 12.0634C97.3435 7.06858 93.2995 3.01447 88.3047 3.00824C83.3099 3.00202 79.2558 7.04603 79.2496 12.0408C79.2434 17.0356 83.2874 21.0897 88.2821 21.0959ZM88.2792 23.4552C94.577 23.463 99.6887 18.3641 99.6965 12.0663C99.7044 5.76854 94.6054 0.656836 88.3076 0.648984C82.0099 0.641131 76.8982 5.74011 76.8903 12.0379C76.8825 18.3356 81.9814 23.4473 88.2792 23.4552Z" fill="#2F2F2E"/>
<path d="M92.6187 12.0575C92.6158 14.4463 90.6768 16.3804 88.288 16.3774C85.8992 16.3744 83.9651 14.4355 83.9681 12.0467C83.9711 9.65788 85.91 7.72379 88.2988 7.72677C90.6876 7.72975 92.6217 9.66867 92.6187 12.0575Z" fill="#2F2F2E"/>
<path fill-rule="evenodd" clip-rule="evenodd" d="M568.453 1371.79C573.052 1371.8 576.784 1368.07 576.79 1363.47C576.796 1358.88 573.073 1355.14 568.474 1355.14C563.875 1355.13 560.142 1358.85 560.137 1363.45C560.131 1368.05 563.854 1371.78 568.453 1371.79ZM568.449 1374.91C574.772 1374.92 579.905 1369.8 579.913 1363.48C579.921 1357.15 574.801 1352.02 568.478 1352.01C562.154 1352.01 557.022 1357.13 557.014 1363.45C557.006 1369.77 562.126 1374.91 568.449 1374.91Z" fill="#2F2F2E"/>
<circle cx="1263.4" cy="1351.4" r="11.4031" fill="#2F2F2E"/>
<path fill-rule="evenodd" clip-rule="evenodd" d="M1088.41 1113.46C1093.4 1113.47 1097.45 1109.42 1097.46 1104.43C1097.47 1099.43 1093.42 1095.38 1088.43 1095.37C1083.43 1095.37 1079.38 1099.41 1079.37 1104.41C1079.37 1109.4 1083.41 1113.45 1088.41 1113.46ZM1088.4 1115.82C1094.7 1115.83 1099.81 1110.73 1099.82 1104.43C1099.83 1098.13 1094.73 1093.02 1088.43 1093.01C1082.13 1093.01 1077.02 1098.11 1077.01 1104.4C1077.01 1110.7 1082.11 1115.81 1088.4 1115.82Z" fill="#2F2F2E"/>
<path d="M1092.74 1104.42C1092.74 1106.81 1090.8 1108.75 1088.41 1108.74C1086.02 1108.74 1084.09 1106.8 1084.09 1104.41C1084.09 1102.02 1086.03 1100.09 1088.42 1100.09C1090.81 1100.09 1092.75 1102.03 1092.74 1104.42Z" fill="#2F2F2E"/>
<path fill-rule="evenodd" clip-rule="evenodd" d="M321.453 299.79C326.052 299.796 329.785 296.073 329.79 291.474C329.796 286.875 326.073 283.143 321.474 283.137C316.875 283.131 313.143 286.854 313.137 291.453C313.131 296.052 316.854 299.785 321.453 299.79ZM321.449 302.913C327.773 302.921 332.905 297.801 332.913 291.478C332.921 285.155 327.801 280.022 321.478 280.014C315.155 280.006 310.022 285.126 310.014 291.449C310.006 297.773 315.126 302.905 321.449 302.913Z" fill="#2F2F2E"/>
<circle cx="460.417" cy="687.417" r="11.4031" transform="rotate(0.071439 460.417 687.417)" fill="#2F2F2E"/>
<path fill-rule="evenodd" clip-rule="evenodd" d="M1376.4 87.4469C1381.4 87.4469 1385.45 83.3979 1385.45 78.4031C1385.45 73.4083 1381.4 69.3593 1376.4 69.3593C1371.41 69.3593 1367.36 73.4083 1367.36 78.4031C1367.36 83.3979 1371.41 87.4469 1376.4 87.4469ZM1376.4 89.8062C1382.7 89.8062 1387.81 84.7009 1387.81 78.4031C1387.81 72.1053 1382.7 67 1376.4 67C1370.11 67 1365 72.1053 1365 78.4031C1365 84.7009 1370.11 89.8062 1376.4 89.8062Z" fill="#2F2F2E"/>
<path d="M1380.73 78.4031C1380.73 80.7919 1378.79 82.7284 1376.4 82.7284C1374.01 82.7284 1372.08 80.7919 1372.08 78.4031C1372.08 76.0143 1374.01 74.0778 1376.4 74.0778C1378.79 74.0778 1380.73 76.0143 1380.73 78.4031Z" fill="#2F2F2E"/>
<path fill-rule="evenodd" clip-rule="evenodd" d="M1129.45 322.79C1134.05 322.796 1137.78 319.073 1137.79 314.474C1137.8 309.875 1134.07 306.143 1129.47 306.137C1124.88 306.131 1121.14 309.854 1121.14 314.453C1121.13 319.052 1124.85 322.785 1129.45 322.79ZM1129.45 325.913C1135.77 325.921 1140.9 320.801 1140.91 314.478C1140.92 308.155 1135.8 303.022 1129.48 303.014C1123.15 303.006 1118.02 308.126 1118.01 314.449C1118.01 320.773 1123.13 325.905 1129.45 325.913Z" fill="#2F2F2E"/>
<path fill-rule="evenodd" clip-rule="evenodd" d="M651.764 35.7985C656.759 35.8048 660.813 31.7608 660.819 26.766C660.826 21.7712 656.782 17.7171 651.787 17.7109C646.792 17.7047 642.738 21.7487 642.732 26.7434C642.726 31.7382 646.77 35.7923 651.764 35.7985ZM651.761 38.1578C658.059 38.1657 663.171 33.0667 663.179 26.7689C663.187 20.4712 658.088 15.3595 651.79 15.3516C645.492 15.3438 640.38 20.4427 640.373 26.7405C640.365 33.0383 645.464 38.15 651.761 38.1578Z" fill="#22484E"/>
<path d="M656.101 26.7601C656.098 29.1489 654.159 31.083 651.77 31.08C649.381 31.0771 647.447 29.1381 647.45 26.7493C647.453 24.3605 649.392 22.4264 651.781 22.4294C654.17 22.4324 656.104 24.3713 656.101 26.7601Z" fill="#22484E"/>
<circle cx="39.4172" cy="800.417" r="11.4031" transform="rotate(0.071439 39.4172 800.417)" fill="#2F2F2E"/>
<path fill-rule="evenodd" clip-rule="evenodd" d="M888.453 786.79C893.052 786.796 896.784 783.073 896.79 778.474C896.796 773.875 893.073 770.143 888.474 770.137C883.875 770.131 880.142 773.854 880.137 778.453C880.131 783.052 883.854 786.785 888.453 786.79ZM888.449 789.913C894.772 789.921 899.905 784.801 899.913 778.478C899.921 772.155 894.801 767.022 888.478 767.014C882.154 767.006 877.022 772.126 877.014 778.449C877.006 784.773 882.126 789.905 888.449 789.913Z" fill="#22484E"/>
<path fill-rule="evenodd" clip-rule="evenodd" d="M88.2821 21.0959C93.2769 21.1021 97.331 17.0581 97.3373 12.0634C97.3435 7.06858 93.2995 3.01447 88.3047 3.00824C83.3099 3.00202 79.2558 7.04603 79.2496 12.0408C79.2434 17.0356 83.2874 21.0897 88.2821 21.0959ZM88.2792 23.4552C94.577 23.463 99.6887 18.3641 99.6965 12.0663C99.7044 5.76854 94.6054 0.656836 88.3076 0.648984C82.0099 0.641131 76.8982 5.74011 76.8903 12.0379C76.8825 18.3356 81.9814 23.4473 88.2792 23.4552Z" fill="#2F2F2E"/>
<path d="M92.6187 12.0575C92.6158 14.4463 90.6768 16.3804 88.288 16.3774C85.8992 16.3744 83.9651 14.4355 83.9681 12.0467C83.9711 9.65788 85.91 7.72379 88.2988 7.72677C90.6876 7.72975 92.6217 9.66867 92.6187 12.0575Z" fill="#2F2F2E"/>
<path fill-rule="evenodd" clip-rule="evenodd" d="M1088.41 1113.46C1093.4 1113.47 1097.45 1109.42 1097.46 1104.43C1097.47 1099.43 1093.42 1095.38 1088.43 1095.37C1083.43 1095.37 1079.38 1099.41 1079.37 1104.41C1079.37 1109.4 1083.41 1113.45 1088.41 1113.46ZM1088.4 1115.82C1094.7 1115.83 1099.81 1110.73 1099.82 1104.43C1099.83 1098.13 1094.73 1093.02 1088.43 1093.01C1082.13 1093.01 1077.02 1098.11 1077.01 1104.4C1077.01 1110.7 1082.11 1115.81 1088.4 1115.82Z" fill="#2F2F2E"/>
<path d="M1092.74 1104.42C1092.74 1106.81 1090.8 1108.75 1088.41 1108.74C1086.02 1108.74 1084.09 1106.8 1084.09 1104.41C1084.09 1102.02 1086.03 1100.09 1088.42 1100.09C1090.81 1100.09 1092.75 1102.03 1092.74 1104.42Z" fill="#2F2F2E"/>
<path fill-rule="evenodd" clip-rule="evenodd" d="M321.453 299.79C326.052 299.796 329.785 296.073 329.79 291.474C329.796 286.875 326.073 283.143 321.474 283.137C316.875 283.131 313.143 286.854 313.137 291.453C313.131 296.052 316.854 299.785 321.453 299.79ZM321.449 302.913C327.773 302.921 332.905 297.801 332.913 291.478C332.921 285.155 327.801 280.022 321.478 280.014C315.155 280.006 310.022 285.126 310.014 291.449C310.006 297.773 315.126 302.905 321.449 302.913Z" fill="#2F2F2E"/>
<circle cx="460.417" cy="687.417" r="11.4031" transform="rotate(0.071439 460.417 687.417)" fill="#2F2F2E"/>
<path fill-rule="evenodd" clip-rule="evenodd" d="M1376.4 87.4469C1381.4 87.4469 1385.45 83.3979 1385.45 78.4031C1385.45 73.4083 1381.4 69.3593 1376.4 69.3593C1371.41 69.3593 1367.36 73.4083 1367.36 78.4031C1367.36 83.3979 1371.41 87.4469 1376.4 87.4469ZM1376.4 89.8062C1382.7 89.8062 1387.81 84.7009 1387.81 78.4031C1387.81 72.1053 1382.7 67 1376.4 67C1370.11 67 1365 72.1053 1365 78.4031C1365 84.7009 1370.11 89.8062 1376.4 89.8062Z" fill="#2F2F2E"/>
<path d="M1380.73 78.4031C1380.73 80.7919 1378.79 82.7284 1376.4 82.7284C1374.01 82.7284 1372.08 80.7919 1372.08 78.4031C1372.08 76.0143 1374.01 74.0778 1376.4 74.0778C1378.79 74.0778 1380.73 76.0143 1380.73 78.4031Z" fill="#2F2F2E"/>
<path fill-rule="evenodd" clip-rule="evenodd" d="M1129.45 322.79C1134.05 322.796 1137.78 319.073 1137.79 314.474C1137.8 309.875 1134.07 306.143 1129.47 306.137C1124.88 306.131 1121.14 309.854 1121.14 314.453C1121.13 319.052 1124.85 322.785 1129.45 322.79ZM1129.45 325.913C1135.77 325.921 1140.9 320.801 1140.91 314.478C1140.92 308.155 1135.8 303.022 1129.48 303.014C1123.15 303.006 1118.02 308.126 1118.01 314.449C1118.01 320.773 1123.13 325.905 1129.45 325.913Z" fill="#2F2F2E"/>
<circle cx="124.444" cy="1864.9" r="11.4031" transform="rotate(86.8404 124.444 1864.9)" fill="#22484E"/>
<path fill-rule="evenodd" clip-rule="evenodd" d="M1342.31 2296.29C1342.59 2301.28 1346.85 2305.1 1351.84 2304.82C1356.83 2304.55 1360.65 2300.28 1360.37 2295.3C1360.1 2290.31 1355.83 2286.49 1350.84 2286.76C1345.86 2287.04 1342.04 2291.3 1342.31 2296.29ZM1339.96 2296.42C1340.3 2302.71 1345.68 2307.53 1351.97 2307.18C1358.26 2306.83 1363.08 2301.45 1362.73 2295.17C1362.38 2288.88 1357 2284.06 1350.71 2284.41C1344.43 2284.75 1339.61 2290.13 1339.96 2296.42Z" fill="#22484E"/>
<path d="M1351.58 2300.11C1349.2 2300.24 1347.16 2298.42 1347.02 2296.03C1346.89 2293.65 1348.72 2291.61 1351.1 2291.47C1353.49 2291.34 1355.53 2293.17 1355.66 2295.56C1355.79 2297.94 1353.97 2299.98 1351.58 2300.11Z" fill="#22484E"/>
<circle cx="544.396" cy="1728.01" r="11.4031" transform="rotate(86.8404 544.396 1728.01)" fill="#2F2F2E"/>
<path fill-rule="evenodd" clip-rule="evenodd" d="M605.855 2574.93C606.108 2579.52 610.036 2583.04 614.628 2582.79C619.22 2582.53 622.736 2578.61 622.483 2574.01C622.23 2569.42 618.302 2565.91 613.71 2566.16C609.118 2566.41 605.601 2570.34 605.855 2574.93ZM602.737 2575.1C603.085 2581.42 608.486 2586.25 614.8 2585.91C621.114 2585.56 625.949 2580.16 625.601 2573.84C625.252 2567.53 619.851 2562.69 613.538 2563.04C607.224 2563.39 602.388 2568.79 602.737 2575.1Z" fill="#22484E"/>
<path fill-rule="evenodd" clip-rule="evenodd" d="M1325.23 1732.88C1325.51 1737.86 1329.77 1741.68 1334.76 1741.41C1339.75 1741.13 1343.57 1736.87 1343.29 1731.88C1343.02 1726.89 1338.75 1723.07 1333.76 1723.35C1328.78 1723.62 1324.96 1727.89 1325.23 1732.88ZM1322.88 1733.01C1323.22 1739.3 1328.6 1744.11 1334.89 1743.76C1341.18 1743.42 1346 1738.04 1345.65 1731.75C1345.3 1725.46 1339.92 1720.65 1333.63 1720.99C1327.35 1721.34 1322.53 1726.72 1322.88 1733.01Z" fill="#2F2F2E"/>
<path d="M1334.5 1736.7C1332.12 1736.83 1330.08 1735 1329.94 1732.62C1329.81 1730.23 1331.64 1728.19 1334.02 1728.06C1336.41 1727.93 1338.45 1729.76 1338.58 1732.14C1338.71 1734.53 1336.89 1736.57 1334.5 1736.7Z" fill="#2F2F2E"/>
<path fill-rule="evenodd" clip-rule="evenodd" d="M3.74896 2288.41C4.00244 2293.01 7.93029 2296.52 12.5221 2296.27C17.1139 2296.02 20.6307 2292.09 20.3773 2287.5C20.1238 2282.9 16.1959 2279.39 11.6042 2279.64C7.01238 2279.89 3.49549 2283.82 3.74896 2288.41ZM0.631158 2288.59C0.979684 2294.9 6.38048 2299.74 12.6942 2299.39C19.0079 2299.04 23.8436 2293.64 23.4951 2287.32C23.1465 2281.01 17.7458 2276.17 11.4321 2276.52C5.11836 2276.87 0.282632 2282.27 0.631158 2288.59Z" fill="#2F2F2E"/>
<circle cx="63.2729" cy="2981.11" r="11.4031" transform="rotate(86.769 63.2729 2981.11)" fill="#2F2F2E"/>
<path fill-rule="evenodd" clip-rule="evenodd" d="M290.973 2792.98C291.249 2797.97 295.515 2801.79 300.502 2801.51C305.489 2801.24 309.309 2796.97 309.034 2791.98C308.758 2787 304.492 2783.18 299.505 2783.45C294.518 2783.73 290.698 2787.99 290.973 2792.98ZM288.618 2793.11C288.965 2799.4 294.344 2804.21 300.632 2803.87C306.92 2803.52 311.736 2798.14 311.389 2791.85C311.042 2785.56 305.663 2780.75 299.375 2781.1C293.087 2781.44 288.271 2786.82 288.618 2793.11Z" fill="#2F2F2E"/>
<path d="M300.242 2796.8C297.857 2796.93 295.816 2795.1 295.685 2792.72C295.553 2790.33 297.38 2788.29 299.765 2788.16C302.15 2788.03 304.191 2789.86 304.322 2792.24C304.454 2794.63 302.627 2796.67 300.242 2796.8Z" fill="#2F2F2E"/>
<path fill-rule="evenodd" clip-rule="evenodd" d="M1060.12 1981.39C1060.38 1985.98 1064.3 1989.49 1068.9 1989.24C1073.49 1988.99 1077 1985.06 1076.75 1980.47C1076.5 1975.88 1072.57 1972.36 1067.98 1972.61C1063.39 1972.87 1059.87 1976.79 1060.12 1981.39ZM1057 1981.56C1057.35 1987.87 1062.75 1992.71 1069.07 1992.36C1075.38 1992.01 1080.22 1986.61 1079.87 1980.3C1079.52 1973.98 1074.12 1969.15 1067.81 1969.49C1061.49 1969.84 1056.66 1975.24 1057 1981.56Z" fill="#2F2F2E"/>
<circle cx="680.945" cy="2141.98" r="11.4031" transform="rotate(86.8404 680.945 2141.98)" fill="#2F2F2E"/>
<path fill-rule="evenodd" clip-rule="evenodd" d="M1331.59 3022.69C1331.87 3027.68 1336.14 3031.49 1341.13 3031.21C1346.11 3030.93 1349.93 3026.66 1349.65 3021.67C1349.37 3016.68 1345.1 3012.87 1340.11 3013.15C1335.12 3013.43 1331.31 3017.7 1331.59 3022.69ZM1329.23 3022.82C1329.59 3029.11 1334.97 3033.92 1341.26 3033.57C1347.55 3033.21 1352.36 3027.83 1352 3021.54C1351.65 3015.25 1346.26 3010.44 1339.98 3010.8C1333.69 3011.15 1328.88 3016.54 1329.23 3022.82Z" fill="#2F2F2E"/>
<path d="M1340.86 3026.5C1338.48 3026.63 1336.43 3024.81 1336.3 3022.42C1336.17 3020.04 1337.99 3018 1340.37 3017.86C1342.76 3017.73 1344.8 3019.55 1344.94 3021.94C1345.07 3024.32 1343.25 3026.36 1340.86 3026.5Z" fill="#2F2F2E"/>
<path fill-rule="evenodd" clip-rule="evenodd" d="M1082.7 2789.4C1082.95 2793.99 1086.88 2797.51 1091.47 2797.25C1096.07 2797 1099.58 2793.07 1099.33 2788.48C1099.08 2783.89 1095.15 2780.37 1090.56 2780.62C1085.96 2780.88 1082.45 2784.81 1082.7 2789.4ZM1079.58 2789.57C1079.93 2795.88 1085.33 2800.72 1091.65 2800.37C1097.96 2800.02 1102.8 2794.62 1102.45 2788.31C1102.1 2781.99 1096.7 2777.16 1090.38 2777.51C1084.07 2777.85 1079.23 2783.26 1079.58 2789.57Z" fill="#2F2F2E"/>
<path fill-rule="evenodd" clip-rule="evenodd" d="M762.935 3443.46C757.948 3443.74 754.135 3448.01 754.418 3453C754.702 3457.99 758.974 3461.8 763.96 3461.52C768.947 3461.23 772.76 3456.96 772.477 3451.97C772.194 3446.99 767.922 3443.17 762.935 3443.46ZM762.801 3441.1C756.513 3441.46 751.706 3446.84 752.063 3453.13C752.42 3459.42 757.807 3464.23 764.094 3463.87C770.382 3463.51 775.19 3458.13 774.832 3451.84C774.475 3445.55 769.089 3440.74 762.801 3441.1Z" fill="#22484E"/>
<path d="M759.129 3452.73C758.994 3450.35 760.817 3448.3 763.202 3448.17C765.587 3448.03 767.631 3449.86 767.766 3452.24C767.901 3454.63 766.078 3456.67 763.693 3456.8C761.308 3456.94 759.265 3455.12 759.129 3452.73Z" fill="#22484E"/>
<path fill-rule="evenodd" clip-rule="evenodd" d="M1089.52 3357C1084.53 3357.29 1080.72 3361.56 1081 3366.54C1081.29 3371.53 1085.56 3375.34 1090.54 3375.06C1095.53 3374.78 1099.34 3370.51 1099.06 3365.52C1098.78 3360.53 1094.51 3356.72 1089.52 3357ZM1089.38 3354.65C1083.1 3355 1078.29 3360.39 1078.65 3366.68C1079 3372.97 1084.39 3377.77 1090.68 3377.42C1096.97 3377.06 1101.77 3371.67 1101.42 3365.38C1101.06 3359.1 1095.67 3354.29 1089.38 3354.65Z" fill="#2F2F2E"/>
<path d="M1085.71 3366.28C1085.58 3363.89 1087.4 3361.85 1089.79 3361.71C1092.17 3361.58 1094.21 3363.4 1094.35 3365.79C1094.48 3368.17 1092.66 3370.21 1090.28 3370.35C1087.89 3370.49 1085.85 3368.66 1085.71 3366.28Z" fill="#2F2F2E"/>
<path fill-rule="evenodd" clip-rule="evenodd" d="M1077.39 3160.77C1072.8 3161.03 1069.29 3164.96 1069.55 3169.55C1069.81 3174.14 1073.75 3177.65 1078.34 3177.39C1082.93 3177.13 1086.44 3173.2 1086.18 3168.61C1085.92 3164.02 1081.98 3160.51 1077.39 3160.77ZM1077.22 3157.65C1070.9 3158.01 1066.08 3163.42 1066.43 3169.73C1066.79 3176.04 1072.2 3180.87 1078.51 3180.51C1084.83 3180.15 1089.65 3174.74 1089.3 3168.43C1088.94 3162.12 1083.53 3157.29 1077.22 3157.65Z" fill="#2F2F2E"/>
<path fill-rule="evenodd" clip-rule="evenodd" d="M334.521 3380.02C329.534 3380.31 325.727 3384.58 326.016 3389.57C326.306 3394.56 330.583 3398.36 335.569 3398.07C340.555 3397.78 344.363 3393.51 344.073 3388.52C343.784 3383.53 339.507 3379.73 334.521 3380.02ZM334.384 3377.66C328.097 3378.03 323.296 3383.42 323.661 3389.71C324.026 3395.99 329.418 3400.79 335.706 3400.43C341.993 3400.06 346.794 3394.67 346.429 3388.38C346.064 3382.1 340.671 3377.3 334.384 3377.66Z" fill="#2F2F2E"/>
<path d="M330.727 3389.3C330.588 3386.91 332.409 3384.87 334.794 3384.73C337.179 3384.59 339.224 3386.41 339.363 3388.79C339.501 3391.18 337.68 3393.22 335.295 3393.36C332.911 3393.5 330.865 3391.68 330.727 3389.3Z" fill="#2F2F2E"/>
<path fill-rule="evenodd" clip-rule="evenodd" d="M269.418 3184.63C264.826 3184.89 261.316 3188.82 261.577 3193.41C261.837 3198.01 265.771 3201.52 270.362 3201.26C274.954 3201 278.464 3197.06 278.203 3192.47C277.943 3187.88 274.009 3184.37 269.418 3184.63ZM269.241 3181.51C262.928 3181.87 258.101 3187.28 258.459 3193.59C258.818 3199.91 264.226 3204.73 270.539 3204.37C276.852 3204.02 281.68 3198.61 281.321 3192.29C280.962 3185.98 275.554 3181.15 269.241 3181.51Z" fill="#2F2F2E"/>
<circle cx="280.417" cy="4732.42" r="11.4031" transform="rotate(0.071439 280.417 4732.42)" fill="#22484E"/>
<path fill-rule="evenodd" clip-rule="evenodd" d="M654.764 3510.8C659.759 3510.8 663.813 3506.76 663.819 3501.77C663.825 3496.77 659.781 3492.72 654.787 3492.71C649.792 3492.7 645.738 3496.75 645.732 3501.74C645.725 3506.74 649.769 3510.79 654.764 3510.8ZM654.761 3513.16C661.059 3513.17 666.171 3508.07 666.178 3501.77C666.186 3495.47 661.087 3490.36 654.79 3490.35C648.492 3490.34 643.38 3495.44 643.372 3501.74C643.364 3508.04 648.463 3513.15 654.761 3513.16Z" fill="#22484E"/>
<path d="M659.101 3501.76C659.098 3504.15 657.159 3506.08 654.77 3506.08C652.381 3506.08 650.447 3504.14 650.45 3501.75C650.453 3499.36 652.392 3497.43 654.781 3497.43C657.17 3497.43 659.104 3499.37 659.101 3501.76Z" fill="#22484E"/>
<circle cx="42.417" cy="4275.42" r="11.4031" transform="rotate(0.071439 42.417 4275.42)" fill="#2F2F2E"/>
<path fill-rule="evenodd" clip-rule="evenodd" d="M891.453 4261.79C896.052 4261.8 899.784 4258.07 899.79 4253.47C899.796 4248.88 896.072 4245.14 891.474 4245.14C886.875 4245.13 883.142 4248.85 883.136 4253.45C883.131 4258.05 886.854 4261.78 891.453 4261.79ZM891.449 4264.91C897.772 4264.92 902.905 4259.8 902.913 4253.48C902.92 4247.15 897.801 4242.02 891.477 4242.01C885.154 4242.01 880.022 4247.13 880.014 4253.45C880.006 4259.77 885.126 4264.91 891.449 4264.91Z" fill="#22484E"/>
<path fill-rule="evenodd" clip-rule="evenodd" d="M91.2819 3496.1C96.2767 3496.1 100.331 3492.06 100.337 3487.06C100.343 3482.07 96.2992 3478.01 91.3045 3478.01C86.3097 3478 82.2556 3482.05 82.2493 3487.04C82.2431 3492.04 86.2871 3496.09 91.2819 3496.1ZM91.279 3498.46C97.5767 3498.46 102.688 3493.36 102.696 3487.07C102.704 3480.77 97.6051 3475.66 91.3074 3475.65C85.0096 3475.64 79.8979 3480.74 79.8901 3487.04C79.8822 3493.34 84.9812 3498.45 91.279 3498.46Z" fill="#2F2F2E"/>
<path d="M95.6185 3487.06C95.6155 3489.45 93.6766 3491.38 91.2878 3491.38C88.899 3491.37 86.9649 3489.44 86.9679 3487.05C86.9708 3484.66 88.9098 3482.72 91.2986 3482.73C93.6874 3482.73 95.6215 3484.67 95.6185 3487.06Z" fill="#2F2F2E"/>
<path fill-rule="evenodd" clip-rule="evenodd" d="M571.453 4846.79C576.052 4846.8 579.784 4843.07 579.79 4838.47C579.796 4833.88 576.073 4830.14 571.474 4830.14C566.875 4830.13 563.142 4833.85 563.137 4838.45C563.131 4843.05 566.854 4846.78 571.453 4846.79ZM571.449 4849.91C577.772 4849.92 582.905 4844.8 582.913 4838.48C582.921 4832.15 577.801 4827.02 571.478 4827.01C565.154 4827.01 560.022 4832.13 560.014 4838.45C560.006 4844.77 565.126 4849.91 571.449 4849.91Z" fill="#2F2F2E"/>
<circle cx="1266.4" cy="4826.4" r="11.4031" fill="#2F2F2E"/>
<path fill-rule="evenodd" clip-rule="evenodd" d="M1091.41 4588.46C1096.4 4588.47 1100.45 4584.42 1100.46 4579.43C1100.47 4574.43 1096.42 4570.38 1091.43 4570.37C1086.43 4570.37 1082.38 4574.41 1082.37 4579.41C1082.37 4584.4 1086.41 4588.45 1091.41 4588.46ZM1091.4 4590.82C1097.7 4590.83 1102.81 4585.73 1102.82 4579.43C1102.83 4573.13 1097.73 4568.02 1091.43 4568.01C1085.13 4568.01 1080.02 4573.11 1080.01 4579.4C1080.01 4585.7 1085.11 4590.81 1091.4 4590.82Z" fill="#2F2F2E"/>
<path d="M1095.74 4579.42C1095.74 4581.81 1093.8 4583.75 1091.41 4583.74C1089.02 4583.74 1087.09 4581.8 1087.09 4579.41C1087.09 4577.02 1089.03 4575.09 1091.42 4575.09C1093.81 4575.09 1095.75 4577.03 1095.74 4579.42Z" fill="#2F2F2E"/>
<path fill-rule="evenodd" clip-rule="evenodd" d="M324.453 3774.79C329.052 3774.8 332.784 3771.07 332.79 3766.47C332.796 3761.88 329.073 3758.14 324.474 3758.14C319.875 3758.13 316.142 3761.85 316.137 3766.45C316.131 3771.05 319.854 3774.78 324.453 3774.79ZM324.449 3777.91C330.772 3777.92 335.905 3772.8 335.913 3766.48C335.921 3760.15 330.801 3755.02 324.478 3755.01C318.154 3755.01 313.022 3760.13 313.014 3766.45C313.006 3772.77 318.126 3777.91 324.449 3777.91Z" fill="#2F2F2E"/>
<circle cx="463.417" cy="4162.42" r="11.4031" transform="rotate(0.071439 463.417 4162.42)" fill="#2F2F2E"/>
<path fill-rule="evenodd" clip-rule="evenodd" d="M1379.4 3562.45C1384.4 3562.45 1388.45 3558.4 1388.45 3553.4C1388.45 3548.41 1384.4 3544.36 1379.4 3544.36C1374.41 3544.36 1370.36 3548.41 1370.36 3553.4C1370.36 3558.4 1374.41 3562.45 1379.4 3562.45ZM1379.4 3564.81C1385.7 3564.81 1390.81 3559.7 1390.81 3553.4C1390.81 3547.11 1385.7 3542 1379.4 3542C1373.11 3542 1368 3547.11 1368 3553.4C1368 3559.7 1373.11 3564.81 1379.4 3564.81Z" fill="#2F2F2E"/>
<path d="M1383.73 3553.4C1383.73 3555.79 1381.79 3557.73 1379.4 3557.73C1377.01 3557.73 1375.08 3555.79 1375.08 3553.4C1375.08 3551.01 1377.01 3549.08 1379.4 3549.08C1381.79 3549.08 1383.73 3551.01 1383.73 3553.4Z" fill="#2F2F2E"/>
<path fill-rule="evenodd" clip-rule="evenodd" d="M1132.45 3797.79C1137.05 3797.8 1140.78 3794.07 1140.79 3789.47C1140.8 3784.88 1137.07 3781.14 1132.47 3781.14C1127.88 3781.13 1124.14 3784.85 1124.14 3789.45C1124.13 3794.05 1127.85 3797.78 1132.45 3797.79ZM1132.45 3800.91C1138.77 3800.92 1143.9 3795.8 1143.91 3789.48C1143.92 3783.15 1138.8 3778.02 1132.48 3778.01C1126.15 3778.01 1121.02 3783.13 1121.01 3789.45C1121.01 3795.77 1126.13 3800.91 1132.45 3800.91Z" fill="#2F2F2E"/>
<path fill-rule="evenodd" clip-rule="evenodd" d="M654.764 3510.8C659.759 3510.8 663.813 3506.76 663.819 3501.77C663.825 3496.77 659.781 3492.72 654.787 3492.71C649.792 3492.7 645.738 3496.75 645.732 3501.74C645.725 3506.74 649.769 3510.79 654.764 3510.8ZM654.761 3513.16C661.059 3513.17 666.171 3508.07 666.178 3501.77C666.186 3495.47 661.087 3490.36 654.79 3490.35C648.492 3490.34 643.38 3495.44 643.372 3501.74C643.364 3508.04 648.463 3513.15 654.761 3513.16Z" fill="#22484E"/>
<path d="M659.101 3501.76C659.098 3504.15 657.159 3506.08 654.77 3506.08C652.381 3506.08 650.447 3504.14 650.45 3501.75C650.453 3499.36 652.392 3497.43 654.781 3497.43C657.17 3497.43 659.104 3499.37 659.101 3501.76Z" fill="#22484E"/>
<circle cx="42.417" cy="4275.42" r="11.4031" transform="rotate(0.071439 42.417 4275.42)" fill="#2F2F2E"/>
<path fill-rule="evenodd" clip-rule="evenodd" d="M891.453 4261.79C896.052 4261.8 899.784 4258.07 899.79 4253.47C899.796 4248.88 896.072 4245.14 891.474 4245.14C886.875 4245.13 883.142 4248.85 883.136 4253.45C883.131 4258.05 886.854 4261.78 891.453 4261.79ZM891.449 4264.91C897.772 4264.92 902.905 4259.8 902.913 4253.48C902.92 4247.15 897.801 4242.02 891.477 4242.01C885.154 4242.01 880.022 4247.13 880.014 4253.45C880.006 4259.77 885.126 4264.91 891.449 4264.91Z" fill="#22484E"/>
<path fill-rule="evenodd" clip-rule="evenodd" d="M91.2819 3496.1C96.2767 3496.1 100.331 3492.06 100.337 3487.06C100.343 3482.07 96.2992 3478.01 91.3045 3478.01C86.3097 3478 82.2556 3482.05 82.2493 3487.04C82.2431 3492.04 86.2871 3496.09 91.2819 3496.1ZM91.279 3498.46C97.5767 3498.46 102.688 3493.36 102.696 3487.07C102.704 3480.77 97.6051 3475.66 91.3074 3475.65C85.0096 3475.64 79.8979 3480.74 79.8901 3487.04C79.8822 3493.34 84.9812 3498.45 91.279 3498.46Z" fill="#2F2F2E"/>
<path d="M95.6185 3487.06C95.6155 3489.45 93.6766 3491.38 91.2878 3491.38C88.899 3491.37 86.9649 3489.44 86.9679 3487.05C86.9708 3484.66 88.9098 3482.72 91.2986 3482.73C93.6874 3482.73 95.6215 3484.67 95.6185 3487.06Z" fill="#2F2F2E"/>
<path fill-rule="evenodd" clip-rule="evenodd" d="M1091.41 4588.46C1096.4 4588.47 1100.45 4584.42 1100.46 4579.43C1100.47 4574.43 1096.42 4570.38 1091.43 4570.37C1086.43 4570.37 1082.38 4574.41 1082.37 4579.41C1082.37 4584.4 1086.41 4588.45 1091.41 4588.46ZM1091.4 4590.82C1097.7 4590.83 1102.81 4585.73 1102.82 4579.43C1102.83 4573.13 1097.73 4568.02 1091.43 4568.01C1085.13 4568.01 1080.02 4573.11 1080.01 4579.4C1080.01 4585.7 1085.11 4590.81 1091.4 4590.82Z" fill="#2F2F2E"/>
<path d="M1095.74 4579.42C1095.74 4581.81 1093.8 4583.75 1091.41 4583.74C1089.02 4583.74 1087.09 4581.8 1087.09 4579.41C1087.09 4577.02 1089.03 4575.09 1091.42 4575.09C1093.81 4575.09 1095.75 4577.03 1095.74 4579.42Z" fill="#2F2F2E"/>
<path fill-rule="evenodd" clip-rule="evenodd" d="M324.453 3774.79C329.052 3774.8 332.784 3771.07 332.79 3766.47C332.796 3761.88 329.073 3758.14 324.474 3758.14C319.875 3758.13 316.142 3761.85 316.137 3766.45C316.131 3771.05 319.854 3774.78 324.453 3774.79ZM324.449 3777.91C330.772 3777.92 335.905 3772.8 335.913 3766.48C335.921 3760.15 330.801 3755.02 324.478 3755.01C318.154 3755.01 313.022 3760.13 313.014 3766.45C313.006 3772.77 318.126 3777.91 324.449 3777.91Z" fill="#2F2F2E"/>
<circle cx="463.417" cy="4162.42" r="11.4031" transform="rotate(0.071439 463.417 4162.42)" fill="#2F2F2E"/>
<path fill-rule="evenodd" clip-rule="evenodd" d="M1379.4 3562.45C1384.4 3562.45 1388.45 3558.4 1388.45 3553.4C1388.45 3548.41 1384.4 3544.36 1379.4 3544.36C1374.41 3544.36 1370.36 3548.41 1370.36 3553.4C1370.36 3558.4 1374.41 3562.45 1379.4 3562.45ZM1379.4 3564.81C1385.7 3564.81 1390.81 3559.7 1390.81 3553.4C1390.81 3547.11 1385.7 3542 1379.4 3542C1373.11 3542 1368 3547.11 1368 3553.4C1368 3559.7 1373.11 3564.81 1379.4 3564.81Z" fill="#2F2F2E"/>
<path d="M1383.73 3553.4C1383.73 3555.79 1381.79 3557.73 1379.4 3557.73C1377.01 3557.73 1375.08 3555.79 1375.08 3553.4C1375.08 3551.01 1377.01 3549.08 1379.4 3549.08C1381.79 3549.08 1383.73 3551.01 1383.73 3553.4Z" fill="#2F2F2E"/>
<path fill-rule="evenodd" clip-rule="evenodd" d="M1132.45 3797.79C1137.05 3797.8 1140.78 3794.07 1140.79 3789.47C1140.8 3784.88 1137.07 3781.14 1132.47 3781.14C1127.88 3781.13 1124.14 3784.85 1124.14 3789.45C1124.13 3794.05 1127.85 3797.78 1132.45 3797.79ZM1132.45 3800.91C1138.77 3800.92 1143.9 3795.8 1143.91 3789.48C1143.92 3783.15 1138.8 3778.02 1132.48 3778.01C1126.15 3778.01 1121.02 3783.13 1121.01 3789.45C1121.01 3795.77 1126.13 3800.91 1132.45 3800.91Z" fill="#2F2F2E"/>
<circle cx="127.443" cy="5339.9" r="11.4031" transform="rotate(86.8404 127.443 5339.9)" fill="#22484E"/>
<path fill-rule="evenodd" clip-rule="evenodd" d="M1345.31 5771.29C1345.59 5776.28 1349.85 5780.1 1354.84 5779.82C1359.83 5779.55 1363.65 5775.28 1363.37 5770.3C1363.1 5765.31 1358.83 5761.49 1353.84 5761.76C1348.86 5762.04 1345.04 5766.3 1345.31 5771.29ZM1342.96 5771.42C1343.3 5777.71 1348.68 5782.53 1354.97 5782.18C1361.26 5781.83 1366.08 5776.45 1365.73 5770.17C1365.38 5763.88 1360 5759.06 1353.71 5759.41C1347.43 5759.75 1342.61 5765.13 1342.96 5771.42Z" fill="#22484E"/>
<path d="M1354.58 5775.11C1352.2 5775.24 1350.16 5773.42 1350.02 5771.03C1349.89 5768.65 1351.72 5766.61 1354.1 5766.47C1356.49 5766.34 1358.53 5768.17 1358.66 5770.56C1358.79 5772.94 1356.97 5774.98 1354.58 5775.11Z" fill="#22484E"/>
<circle cx="547.395" cy="5203.01" r="11.4031" transform="rotate(86.8404 547.395 5203.01)" fill="#2F2F2E"/>
<path fill-rule="evenodd" clip-rule="evenodd" d="M608.854 6049.93C609.108 6054.52 613.036 6058.04 617.628 6057.79C622.219 6057.53 625.736 6053.61 625.483 6049.01C625.229 6044.42 621.301 6040.91 616.71 6041.16C612.118 6041.41 608.601 6045.34 608.854 6049.93ZM605.737 6050.1C606.085 6056.42 611.486 6061.25 617.8 6060.91C624.113 6060.56 628.949 6055.16 628.601 6048.84C628.252 6042.53 622.851 6037.69 616.538 6038.04C610.224 6038.39 605.388 6043.79 605.737 6050.1Z" fill="#22484E"/>
<path fill-rule="evenodd" clip-rule="evenodd" d="M1328.23 5207.88C1328.51 5212.86 1332.77 5216.68 1337.76 5216.41C1342.75 5216.13 1346.57 5211.87 1346.29 5206.88C1346.02 5201.89 1341.75 5198.07 1336.76 5198.35C1331.78 5198.62 1327.96 5202.89 1328.23 5207.88ZM1325.88 5208.01C1326.22 5214.3 1331.6 5219.11 1337.89 5218.76C1344.18 5218.42 1349 5213.04 1348.65 5206.75C1348.3 5200.46 1342.92 5195.65 1336.63 5195.99C1330.35 5196.34 1325.53 5201.72 1325.88 5208.01Z" fill="#2F2F2E"/>
<path d="M1337.5 5211.7C1335.12 5211.83 1333.08 5210 1332.94 5207.62C1332.81 5205.23 1334.64 5203.19 1337.02 5203.06C1339.41 5202.93 1341.45 5204.75 1341.58 5207.14C1341.71 5209.53 1339.89 5211.57 1337.5 5211.7Z" fill="#2F2F2E"/>
<path fill-rule="evenodd" clip-rule="evenodd" d="M6.74872 5763.41C7.00219 5768.01 10.93 5771.52 15.5218 5771.27C20.1136 5771.02 23.6305 5767.09 23.377 5762.5C23.1236 5757.9 19.1957 5754.39 14.6039 5754.64C10.0121 5754.89 6.49525 5758.82 6.74872 5763.41ZM3.63091 5763.59C3.97944 5769.9 9.38024 5774.74 15.6939 5774.39C22.0076 5774.04 26.8434 5768.64 26.4948 5762.32C26.1463 5756.01 20.7455 5751.17 14.4318 5751.52C8.11811 5751.87 3.28239 5757.27 3.63091 5763.59Z" fill="#2F2F2E"/>
<circle cx="66.2726" cy="6456.11" r="11.4031" transform="rotate(86.769 66.2726 6456.11)" fill="#2F2F2E"/>
<path fill-rule="evenodd" clip-rule="evenodd" d="M293.973 6267.98C294.248 6272.97 298.515 6276.79 303.502 6276.51C308.489 6276.24 312.309 6271.97 312.033 6266.98C311.758 6262 307.492 6258.18 302.505 6258.45C297.518 6258.73 293.698 6262.99 293.973 6267.98ZM291.617 6268.11C291.965 6274.4 297.344 6279.21 303.632 6278.87C309.92 6278.52 314.736 6273.14 314.389 6266.85C314.042 6260.56 308.663 6255.75 302.375 6256.1C296.087 6256.44 291.27 6261.82 291.617 6268.11Z" fill="#2F2F2E"/>
<path d="M303.242 6271.8C300.856 6271.93 298.816 6270.1 298.684 6267.72C298.553 6265.33 300.38 6263.29 302.765 6263.16C305.15 6263.03 307.19 6264.86 307.322 6267.24C307.454 6269.63 305.627 6271.67 303.242 6271.8Z" fill="#2F2F2E"/>
<path fill-rule="evenodd" clip-rule="evenodd" d="M1063.12 5456.39C1063.38 5460.98 1067.3 5464.49 1071.9 5464.24C1076.49 5463.99 1080 5460.06 1079.75 5455.47C1079.5 5450.88 1075.57 5447.36 1070.98 5447.61C1066.39 5447.87 1062.87 5451.79 1063.12 5456.39ZM1060 5456.56C1060.35 5462.87 1065.75 5467.71 1072.07 5467.36C1078.38 5467.01 1083.22 5461.61 1082.87 5455.3C1082.52 5448.98 1077.12 5444.15 1070.81 5444.49C1064.49 5444.84 1059.66 5450.24 1060 5456.56Z" fill="#2F2F2E"/>
<circle cx="683.945" cy="5616.98" r="11.4031" transform="rotate(86.8404 683.945 5616.98)" fill="#2F2F2E"/>
<path fill-rule="evenodd" clip-rule="evenodd" d="M1334.59 6497.69C1334.87 6502.68 1339.14 6506.49 1344.13 6506.21C1349.11 6505.93 1352.93 6501.66 1352.65 6496.67C1352.37 6491.68 1348.1 6487.87 1343.11 6488.15C1338.12 6488.43 1334.31 6492.7 1334.59 6497.69ZM1332.23 6497.82C1332.59 6504.11 1337.97 6508.92 1344.26 6508.57C1350.55 6508.21 1355.36 6502.83 1355 6496.54C1354.65 6490.25 1349.26 6485.44 1342.98 6485.8C1336.69 6486.15 1331.88 6491.54 1332.23 6497.82Z" fill="#2F2F2E"/>
<path d="M1343.86 6501.5C1341.48 6501.63 1339.43 6499.81 1339.3 6497.42C1339.17 6495.04 1340.99 6493 1343.37 6492.86C1345.76 6492.73 1347.8 6494.55 1347.94 6496.94C1348.07 6499.32 1346.25 6501.36 1343.86 6501.5Z" fill="#2F2F2E"/>
<path fill-rule="evenodd" clip-rule="evenodd" d="M1085.7 6264.4C1085.95 6268.99 1089.88 6272.51 1094.47 6272.25C1099.07 6272 1102.58 6268.07 1102.33 6263.48C1102.08 6258.89 1098.15 6255.37 1093.56 6255.62C1088.96 6255.88 1085.45 6259.81 1085.7 6264.4ZM1082.58 6264.57C1082.93 6270.88 1088.33 6275.72 1094.65 6275.37C1100.96 6275.02 1105.8 6269.62 1105.45 6263.31C1105.1 6256.99 1099.7 6252.16 1093.38 6252.51C1087.07 6252.85 1082.23 6258.26 1082.58 6264.57Z" fill="#2F2F2E"/>
<path fill-rule="evenodd" clip-rule="evenodd" d="M765.935 6918.46C760.948 6918.74 757.135 6923.01 757.418 6928C757.701 6932.99 761.973 6936.8 766.96 6936.52C771.947 6936.23 775.76 6931.96 775.477 6926.97C775.193 6921.99 770.921 6918.17 765.935 6918.46ZM765.801 6916.1C759.513 6916.46 754.706 6921.84 755.063 6928.13C755.42 6934.42 760.806 6939.23 767.094 6938.87C773.382 6938.51 778.189 6933.13 777.832 6926.84C777.475 6920.55 772.088 6915.74 765.801 6916.1Z" fill="#22484E"/>
<path d="M762.129 6927.73C761.994 6925.35 763.817 6923.3 766.202 6923.17C768.587 6923.03 770.63 6924.86 770.766 6927.24C770.901 6929.63 769.078 6931.67 766.693 6931.8C764.308 6931.94 762.264 6930.12 762.129 6927.73Z" fill="#22484E"/>
<path fill-rule="evenodd" clip-rule="evenodd" d="M1080.52 6888C1075.53 6888.29 1071.72 6892.56 1072 6897.54C1072.29 6902.53 1076.56 6906.34 1081.54 6906.06C1086.53 6905.78 1090.34 6901.51 1090.06 6896.52C1089.78 6891.53 1085.51 6887.72 1080.52 6888ZM1080.38 6885.65C1074.1 6886 1069.29 6891.39 1069.65 6897.68C1070 6903.97 1075.39 6908.77 1081.68 6908.42C1087.97 6908.06 1092.77 6902.67 1092.42 6896.38C1092.06 6890.1 1086.67 6885.29 1080.38 6885.65Z" fill="#2F2F2E"/>
<path d="M1076.71 6897.28C1076.58 6894.89 1078.4 6892.85 1080.79 6892.71C1083.17 6892.58 1085.21 6894.4 1085.35 6896.79C1085.48 6899.17 1083.66 6901.21 1081.28 6901.35C1078.89 6901.49 1076.85 6899.66 1076.71 6897.28Z" fill="#2F2F2E"/>
<path fill-rule="evenodd" clip-rule="evenodd" d="M1080.39 6635.77C1075.8 6636.03 1072.29 6639.96 1072.55 6644.55C1072.81 6649.14 1076.74 6652.65 1081.34 6652.39C1085.93 6652.13 1089.44 6648.2 1089.18 6643.61C1088.92 6639.02 1084.98 6635.51 1080.39 6635.77ZM1080.21 6632.65C1073.9 6633.01 1069.07 6638.42 1069.43 6644.73C1069.79 6651.04 1075.2 6655.87 1081.51 6655.51C1087.83 6655.15 1092.65 6649.74 1092.3 6643.43C1091.94 6637.12 1086.53 6632.29 1080.21 6632.65Z" fill="#2F2F2E"/>
<path fill-rule="evenodd" clip-rule="evenodd" d="M39.5205 6908.89C34.5341 6909.18 30.7265 6913.45 31.016 6918.44C31.3054 6923.43 35.5823 6927.24 40.5687 6926.95C45.5551 6926.66 49.3627 6922.38 49.0732 6917.39C48.7838 6912.41 44.5069 6908.6 39.5205 6908.89ZM39.3838 6906.53C33.0966 6906.9 28.2957 6912.29 28.6607 6918.58C29.0256 6924.86 34.4182 6929.67 40.7054 6929.3C46.9926 6928.94 51.7935 6923.54 51.4285 6917.26C51.0636 6910.97 45.671 6906.17 39.3838 6906.53Z" fill="#2F2F2E"/>
<path d="M35.7266 6918.17C35.5881 6915.78 37.4092 6913.74 39.7939 6913.6C42.1787 6913.46 44.2242 6915.28 44.3626 6917.67C44.5011 6920.05 42.68 6922.1 40.2953 6922.24C37.9105 6922.37 35.865 6920.55 35.7266 6918.17Z" fill="#2F2F2E"/>
<path fill-rule="evenodd" clip-rule="evenodd" d="M272.418 6659.63C267.826 6659.89 264.316 6663.82 264.576 6668.42C264.837 6673.01 268.771 6676.52 273.362 6676.26C277.953 6676 281.464 6672.06 281.203 6667.47C280.942 6662.88 277.009 6659.37 272.418 6659.63ZM272.241 6656.51C265.927 6656.87 261.1 6662.28 261.459 6668.59C261.817 6674.91 267.226 6679.73 273.539 6679.37C279.852 6679.02 284.679 6673.61 284.321 6667.29C283.962 6660.98 278.554 6656.15 272.241 6656.51Z" fill="#2F2F2E"/>
</svg>
